<svg width="532" height="597" viewBox="0 0 532 597" fill="none" xmlns="http://www.w3.org/2000/svg">
<path d="M164.766 377.279C164.766 369.174 158.2 362.604 150.1 362.604C142 362.604 135.433 369.174 135.433 377.279C135.433 385.384 142 391.954 150.1 391.954C158.2 391.954 164.766 385.384 164.766 377.279Z" stroke="#7A15FB" stroke-width="10" stroke-linecap="round" stroke-linejoin="round"/>
<path d="M357.2 154.676C357.2 146.571 350.633 140.001 342.533 140.001C334.433 140.001 327.866 146.571 327.866 154.676C327.866 162.781 334.433 169.351 342.533 169.351C350.633 169.351 357.2 162.781 357.2 154.676Z" stroke="#7A15FB" stroke-width="10" stroke-linecap="round" stroke-linejoin="round"/>
<path d="M465.433 336.923C465.433 325.171 455.994 315.644 444.35 315.644C432.706 315.644 423.267 325.171 423.267 336.923C423.267 348.675 432.706 358.202 444.35 358.202C455.994 358.202 465.433 348.675 465.433 336.923Z" stroke="url(#paint0_linear)" stroke-width="10" stroke-linecap="round" stroke-linejoin="round"/>
<path d="M157.8 472.483C157.8 484.134 167.239 493.579 178.883 493.579C190.527 493.579 199.966 484.134 199.966 472.483C199.966 460.833 190.527 451.388 178.883 451.388H157.8" stroke="#7A15FB" stroke-width="10" stroke-linecap="round" stroke-linejoin="round"/>
<path d="M212.278 193.291C212.278 181.641 221.67 172.196 233.255 172.196C244.841 172.196 254.233 181.641 254.233 193.291C254.233 204.942 244.841 214.387 233.255 214.387H154.866" stroke="url(#paint1_linear)" stroke-width="10" stroke-linecap="round" stroke-linejoin="round"/>
<path d="M150.466 340.333C129.609 340.333 112.7 356.981 112.7 377.517C112.7 398.053 129.609 414.7 150.466 414.7C171.324 414.7 188.233 398.053 188.233 377.517V280.057" stroke="#4517FF" stroke-width="10" stroke-linecap="round" stroke-linejoin="round"/>
<path fill-rule="evenodd" clip-rule="evenodd" d="M325.367 495.23C325.367 507.285 315.615 517.059 303.587 517.059H241.547C229.518 517.059 219.767 507.285 219.767 495.23C219.767 483.174 229.518 473.4 241.547 473.4H303.587C315.615 473.4 325.367 483.174 325.367 495.23Z" stroke="#4517FF" stroke-width="10" stroke-linecap="round" stroke-linejoin="round"/>
<path fill-rule="evenodd" clip-rule="evenodd" d="M321.866 22.0015C329.046 22.0015 334.866 27.7267 334.866 34.789V71.214C334.866 78.2763 329.046 84.0015 321.866 84.0015C314.687 84.0015 308.866 78.2763 308.866 71.214V34.789C308.866 27.7267 314.687 22.0015 321.866 22.0015Z" stroke="#4517FF" stroke-width="10" stroke-linecap="round" stroke-linejoin="round"/>
<path d="M297.683 289.229H264.928C255.579 289.229 248 281.591 248 272.17C248 262.748 255.579 255.11 264.928 255.11H330.439C339.788 255.11 347.367 262.748 347.367 272.17C347.367 281.591 339.788 289.229 330.439 289.229H322.525" stroke="url(#paint2_linear)" stroke-width="10" stroke-linecap="round" stroke-linejoin="round"/>
<path d="M248 317.479H332.933C358.32 317.479 378.9 296.7 378.9 271.069C378.9 245.437 358.32 224.659 332.933 224.659H312.867" stroke="#7A15FB" stroke-width="10" stroke-linecap="round" stroke-linejoin="round"/>
<path d="M263.033 378.013V396.058C263.033 408.178 253.183 418.002 241.033 418.002C228.883 418.002 219.033 408.178 219.033 396.058V359.968C219.033 347.848 228.883 338.024 241.033 338.024H242.988C254.059 338.024 263.033 346.976 263.033 358.018" stroke="url(#paint3_linear)" stroke-width="10" stroke-linecap="round" stroke-linejoin="round"/>
<path d="M179.067 193.291V172.68C179.067 158.838 168.478 147.615 155.417 147.615C142.355 147.615 131.767 158.838 131.767 172.68V213.903C131.767 227.746 142.355 238.967 155.417 238.967" stroke="#7A15FB" stroke-width="10" stroke-linecap="round" stroke-linejoin="round"/>
<path d="M80.4331 345.361V394.772C80.4331 426.04 105.878 451.388 137.266 451.388" stroke="#7A15FB" stroke-width="10" stroke-linecap="round" stroke-linejoin="round"/>
<path d="M462.133 219.156C440.668 219.156 423.267 201.969 423.267 180.768V113.129" stroke="#7A15FB" stroke-width="10" stroke-linecap="round" stroke-linejoin="round"/>
<path d="M219.033 318.946V282.855C219.033 258.617 199.334 238.967 175.033 238.967" stroke="url(#paint4_linear)" stroke-width="10" stroke-linecap="round" stroke-linejoin="round"/>
<path d="M333.8 108.36H353.51C373.405 108.36 389.533 124.503 389.533 144.419V172.563" stroke="url(#paint5_linear)" stroke-width="10" stroke-linecap="round" stroke-linejoin="round"/>
<path d="M235.533 40.1211V70.9412C235.533 93.2291 253.755 111.295 276.233 111.295" stroke="url(#paint6_linear)" stroke-width="10" stroke-linecap="round" stroke-linejoin="round"/>
<path d="M125.533 576.676C128.948 576.676 171.934 576.676 193 576.676" stroke="#7A15FB" stroke-width="10" stroke-linecap="round" stroke-linejoin="round"/>
<path d="M280.633 193.658C283.454 193.658 318.964 193.658 336.367 193.658" stroke="#7A15FB" stroke-width="10" stroke-linecap="round" stroke-linejoin="round"/>
<path d="M325 388C325 390.821 325 426.331 325 443.733" stroke="#2E208A" stroke-width="10" stroke-linecap="round" stroke-linejoin="round"/>
<path d="M432.066 250.157C433.217 250.157 447.7 250.157 454.8 250.157" stroke="#7A15FB" stroke-width="10" stroke-linecap="round" stroke-linejoin="round"/>
<path d="M148.971 49.6598H156.408C166.897 49.6598 175.4 58.1946 175.4 68.7162C175.4 79.2423 166.897 87.7771 156.408 87.7771H150.248C139.838 87.7771 131.4 96.2457 131.4 106.688C131.4 117.134 139.838 125.603 150.248 125.603H157.829" stroke="url(#paint7_linear)" stroke-width="10" stroke-linecap="round" stroke-linejoin="round"/>
<path d="M31.2656 386.817C43.4348 386.817 53.3 376.962 53.3 364.804C53.3 352.647 43.4348 342.792 31.2656 342.792H6.3667" stroke="#7A15FB" stroke-width="10" stroke-linecap="round" stroke-linejoin="round"/>
<path d="M518.733 459.416V463.34C518.733 474.918 509.34 484.305 497.759 484.305C486.173 484.305 476.779 474.918 476.779 463.34V416.535C476.779 399.427 462.904 385.559 445.785 385.559M216.6 451.007H240.171C268.883 451.007 292.158 427.745 292.158 399.05V378.356C292.158 361.09 306.163 347.093 323.438 347.093M355.03 347.093V412.924C355.03 429.517 368.403 442.969 384.899 442.969C401.395 442.969 414.767 429.517 414.767 412.924V385.754L355.03 347.093Z" stroke="url(#paint8_linear)" stroke-width="10" stroke-linecap="round" stroke-linejoin="round"/>
<path d="M34.4167 466.063C49.9082 466.063 62.4667 453.58 62.4667 438.18C62.4667 422.781 49.9082 410.298 34.4167 410.298C18.9251 410.298 6.3667 422.781 6.3667 438.18L6.3667 466.063" stroke="url(#paint9_linear)" stroke-width="10" stroke-linecap="round" stroke-linejoin="round"/>
<path d="M323.747 566.769C323.747 580.244 312.947 591.167 299.623 591.167C286.3 591.167 275.5 580.244 275.5 566.769C275.5 553.295 286.3 542.372 299.623 542.372H373.4" stroke="#7A15FB" stroke-width="10" stroke-linecap="round" stroke-linejoin="round"/>
<path d="M57.2566 238.601C57.2566 251.568 67.6159 262.081 80.395 262.081C93.1741 262.081 103.533 251.568 103.533 238.601C103.533 225.633 93.1741 215.121 80.395 215.121H6" stroke="url(#paint10_linear)" stroke-width="10" stroke-linecap="round" stroke-linejoin="round"/>
<path d="M502.467 257.34C490.721 257.34 481.2 247.888 481.2 236.229C481.2 224.57 490.721 215.119 502.467 215.119C514.212 215.119 523.734 224.57 523.734 236.229V269.784" stroke="#7A15FB" stroke-width="10" stroke-linecap="round" stroke-linejoin="round"/>
<path fill-rule="evenodd" clip-rule="evenodd" d="M105.876 512H40.0447C23.4516 512 10 525.373 10 541.869C10 558.365 23.4516 571.737 40.0447 571.737H67.2152L105.876 512Z" stroke="url(#paint11_linear)" stroke-width="10" stroke-linecap="round" stroke-linejoin="round"/>
<path fill-rule="evenodd" clip-rule="evenodd" d="M70.3501 186.87C50.8084 186.87 34.9668 171.19 34.9668 151.847L34.9668 115.865C34.9668 96.5214 50.8084 80.8428 70.3501 80.8428C89.8919 80.8428 105.733 96.5214 105.733 115.865V151.847C105.733 171.19 89.8919 186.87 70.3501 186.87Z" stroke="url(#paint12_linear)" stroke-width="10" stroke-linecap="round" stroke-linejoin="round"/>
<path d="M214.526 570.071C214.526 581.722 223.825 591.167 235.297 591.167C246.768 591.167 256.067 581.722 256.067 570.071C256.067 558.421 246.768 548.976 235.297 548.976H50.4668" stroke="url(#paint13_linear)" stroke-width="10" stroke-linecap="round" stroke-linejoin="round"/>
<path d="M122.575 257.678H125.43C141.688 257.678 154.867 270.9 154.867 287.211C154.867 303.522 141.688 316.745 125.43 316.745H35.8031C19.5458 316.745 6.3667 303.522 6.3667 287.211C6.3667 270.9 19.5458 257.678 35.8031 257.678H36.6818" stroke="#4517FF" stroke-width="10" stroke-linecap="round" stroke-linejoin="round"/>
<path d="M355.066 566.678V568.443C355.066 580.993 365.244 591.167 377.8 591.167C390.355 591.167 400.533 580.993 400.533 568.443V515.935C400.533 503.385 390.355 493.211 377.8 493.211C365.244 493.211 355.066 503.385 355.066 515.935V517.7" stroke="#4517FF" stroke-width="10" stroke-linecap="round" stroke-linejoin="round"/>
<path d="M391.733 410.665V334.427C391.733 305.413 415.373 281.891 444.533 281.891C473.692 281.891 497.333 305.413 497.333 334.427V357.362" stroke="#7A15FB" stroke-width="10" stroke-linecap="round" stroke-linejoin="round"/>
<path fill-rule="evenodd" clip-rule="evenodd" d="M477.521 193.473C462.746 193.473 450.767 181.482 450.767 166.691C450.767 151.902 462.746 139.909 477.521 139.909H496.979C511.753 139.909 523.733 151.902 523.733 166.691C523.733 181.482 511.753 193.473 496.979 193.473H477.521Z" stroke="url(#paint14_linear)" stroke-width="10" stroke-linecap="round" stroke-linejoin="round"/>
<path d="M62.8332 6.00153C62.8332 20.5914 50.9314 32.4165 36.2498 32.4165C21.5683 32.4165 9.6665 20.5914 9.6665 6.00153" stroke="url(#paint15_linear)" stroke-width="10" stroke-linecap="round" stroke-linejoin="round"/>
<path d="M481.167 564C481.167 578.59 469.265 590.415 454.583 590.415C439.902 590.415 428 578.59 428 564" stroke="url(#paint16_linear)" stroke-width="10" stroke-linecap="round" stroke-linejoin="round"/>
<path d="M372.3 6.00128C384.045 6.00128 393.566 15.4458 393.566 27.0966C393.566 38.7473 384.045 48.1919 372.3 48.1919" stroke="#7A15FB" stroke-width="10" stroke-linecap="round" stroke-linejoin="round"/>
<path d="M272.567 43.1852C272.567 22.6455 255.658 5.99994 234.8 5.99994C213.942 5.99994 197.033 22.6455 197.033 43.1852V140.643" stroke="#7A15FB" stroke-width="10" stroke-linecap="round" stroke-linejoin="round"/>
<path d="M483.367 509.633C483.367 510.784 483.367 525.267 483.367 532.367" stroke="#7A15FB" stroke-width="10" stroke-linecap="round" stroke-linejoin="round"/>
<path d="M135.733 484C134.583 484 120.1 484 113 484" stroke="#7A15FB" stroke-width="10" stroke-linecap="round" stroke-linejoin="round"/>
<path d="M202 521C198.153 521 149.735 521 126 521" stroke="#31208B" stroke-width="10" stroke-linecap="round" stroke-linejoin="round"/>
<path d="M433.267 493.221C421.521 493.221 412 483.769 412 472.11C412 460.451 421.521 451 433.267 451C445.012 451 454.533 460.451 454.533 472.11V565.665" stroke="#7A15FB" stroke-width="10" stroke-linecap="round" stroke-linejoin="round"/>
<defs>
<linearGradient id="paint0_linear" x1="444.593" y1="337.37" x2="-14.2766" y2="-104.146" gradientUnits="userSpaceOnUse">
<stop stop-color="#2E208A"/>
<stop offset="1" stop-color="#E801BB"/>
</linearGradient>
<linearGradient id="paint1_linear" x1="205.705" y1="216.032" x2="205.705" y2="163.369" gradientUnits="userSpaceOnUse">
<stop offset="0.0114455" stop-color="#EE06F2"/>
<stop offset="1" stop-color="#8B01BC"/>
</linearGradient>
<linearGradient id="paint2_linear" x1="298.257" y1="272.528" x2="66.8361" y2="-381.966" gradientUnits="userSpaceOnUse">
<stop stop-color="#2E208A"/>
<stop offset="1" stop-color="#E801BB"/>
</linearGradient>
<linearGradient id="paint3_linear" x1="241.57" y1="418.002" x2="241.57" y2="333.996" gradientUnits="userSpaceOnUse">
<stop stop-color="#2603AA"/>
<stop offset="0.572917" stop-color="#19026F"/>
</linearGradient>
<linearGradient id="paint4_linear" x1="197.57" y1="318.946" x2="197.57" y2="234.94" gradientUnits="userSpaceOnUse">
<stop stop-color="#2603AA"/>
<stop offset="0.572917" stop-color="#19026F"/>
</linearGradient>
<linearGradient id="paint5_linear" x1="362.346" y1="172.563" x2="362.346" y2="105.127" gradientUnits="userSpaceOnUse">
<stop stop-color="#2603AA"/>
<stop offset="0.572917" stop-color="#19026F"/>
</linearGradient>
<linearGradient id="paint6_linear" x1="256.356" y1="114.071" x2="256.356" y2="25.2302" gradientUnits="userSpaceOnUse">
<stop offset="0.0114455" stop-color="#EE06F2"/>
<stop offset="1" stop-color="#8B01BC"/>
</linearGradient>
<linearGradient id="paint7_linear" x1="153.654" y1="88.4288" x2="-546.74" y2="-305.638" gradientUnits="userSpaceOnUse">
<stop stop-color="#2E208A"/>
<stop offset="1" stop-color="#E801BB"/>
</linearGradient>
<linearGradient id="paint8_linear" x1="371.18" y1="489.657" x2="371.18" y2="318.386" gradientUnits="userSpaceOnUse">
<stop offset="0.0114455" stop-color="#EE06F2"/>
<stop offset="1" stop-color="#8B01BC"/>
</linearGradient>
<linearGradient id="paint9_linear" x1="34.7407" y1="438.766" x2="-566.821" y2="-148.919" gradientUnits="userSpaceOnUse">
<stop stop-color="#2E208A"/>
<stop offset="1" stop-color="#E801BB"/>
</linearGradient>
<linearGradient id="paint10_linear" x1="55.9561" y1="262.081" x2="55.9561" y2="212.756" gradientUnits="userSpaceOnUse">
<stop stop-color="#2603AA"/>
<stop offset="0.572917" stop-color="#19026F"/>
</linearGradient>
<linearGradient id="paint11_linear" x1="10" y1="542.597" x2="110.704" y2="542.597" gradientUnits="userSpaceOnUse">
<stop stop-color="#2603AA"/>
<stop offset="0.572917" stop-color="#19026F"/>
</linearGradient>
<linearGradient id="paint12_linear" x1="71.173" y1="191.005" x2="71.173" y2="58.6599" gradientUnits="userSpaceOnUse">
<stop offset="0.0114455" stop-color="#EE06F2"/>
<stop offset="1" stop-color="#8B01BC"/>
</linearGradient>
<linearGradient id="paint13_linear" x1="155.657" y1="592.812" x2="155.657" y2="540.149" gradientUnits="userSpaceOnUse">
<stop offset="0.0114455" stop-color="#EE06F2"/>
<stop offset="1" stop-color="#8B01BC"/>
</linearGradient>
<linearGradient id="paint14_linear" x1="488.14" y1="193.473" x2="488.14" y2="137.212" gradientUnits="userSpaceOnUse">
<stop stop-color="#2603AA"/>
<stop offset="0.572917" stop-color="#19026F"/>
</linearGradient>
<linearGradient id="paint15_linear" x1="36.5569" y1="19.4864" x2="-194.591" y2="-432.309" gradientUnits="userSpaceOnUse">
<stop stop-color="#2E208A"/>
<stop offset="1" stop-color="#E801BB"/>
</linearGradient>
<linearGradient id="paint16_linear" x1="454.89" y1="577.485" x2="223.743" y2="125.69" gradientUnits="userSpaceOnUse">
<stop stop-color="#2E208A"/>
<stop offset="1" stop-color="#E801BB"/>
</linearGradient>
</defs>
</svg>
