<?xml version="1.0" encoding="UTF-8"?>
<svg xmlns="http://www.w3.org/2000/svg" width="920" height="266" viewBox="0 0 920 266" fill="none">
  <path fill-rule="evenodd" clip-rule="evenodd" d="M97.8469 264.334C97.8469 264.334 97.2301 259.528 95.8013 256.672C94.3725 253.815 85.2806 255.633 85.2806 255.633C85.2806 255.633 83.4626 257.191 83.0728 264.465L97.8469 264.334Z" fill="#8F90A6"></path>
  <path fill-rule="evenodd" clip-rule="evenodd" d="M128.822 264.269C126.686 262.965 127.902 253.237 127.902 253.237C127.902 253.237 137.856 245.274 139.225 251.372C140.594 257.47 148.682 260.207 153.286 260.952C156.464 261.469 157.448 263.228 157.753 264.269H128.822Z" fill="#8F90A6"></path>
  <path fill-rule="evenodd" clip-rule="evenodd" d="M108.207 193.519C108.612 195.75 108.869 197.582 108.937 198.894C109.863 216.946 124.132 258.219 126.684 259.179C130.633 260.67 136.852 257.504 140.105 256.465C141.454 256.035 142.364 254.675 142.064 253.296C134.997 220.811 132.4 174.035 131.455 146.338C130.978 132.391 128.584 122.755 128.584 122.755C128.584 122.755 93.782 113.468 93.5754 125.215C93.3922 135.607 105.103 176.372 108.207 193.519Z" fill="#213F7A"></path>
  <path fill-rule="evenodd" clip-rule="evenodd" d="M108.207 193.519L131.455 146.338C130.978 132.391 128.584 122.755 128.584 122.755C128.584 122.755 93.782 113.468 93.5754 125.215C93.3922 135.607 105.103 176.372 108.207 193.519Z" fill="#233862"></path>
  <path fill-rule="evenodd" clip-rule="evenodd" d="M115.949 125.256L97.5515 258.596C97.5515 258.596 89.472 260.545 83.1883 258.986C83.1883 258.986 77.802 188.068 78.251 170.924C78.6997 153.779 74.3854 125.047 79.2356 121.88C84.086 118.711 115.949 125.256 115.949 125.256Z" fill="#213F7A"></path>
  <path fill-rule="evenodd" clip-rule="evenodd" d="M75.6476 123.034C75.5588 124.237 76.3297 125.334 77.4899 125.672C80.056 126.415 83.015 126.934 88.7218 128.116C94.0813 129.23 101.293 130.215 110.153 130.268C124.245 130.361 129.581 125.502 129.581 125.502C130.188 125.513 129.26 122.565 128.425 108.539C128.141 103.789 127.868 97.7692 127.671 90.1575C127.493 83.3108 127.373 75.1741 127.362 65.5243C127.347 53.9149 109.377 41.4245 109.045 41.4245L109.042 41.4301C109.042 43.1018 106.407 46.1865 102.349 46.4526C97.5334 46.7673 91.6247 44.3704 91.6247 41.5968C91.6247 41.5689 82.9178 55.5247 79.8259 70.3938C79.4322 72.2813 79.1287 74.2694 78.8869 76.3609C78.1528 82.6686 78.8612 78.1702 75.6476 123.034Z" fill="#FFCC00"></path>
  <path fill-rule="evenodd" clip-rule="evenodd" d="M109.046 41.4249C109.046 41.4249 125.756 41.2836 129.777 46.9234C133.799 52.5635 142.617 82.9029 138.015 92.9998C133.414 103.097 124.804 88.8226 120.026 82.6405C115.247 76.4556 109.046 41.4249 109.046 41.4249Z" fill="#FFCC00"></path>
  <path fill-rule="evenodd" clip-rule="evenodd" d="M109.217 38.875L109.207 40.6022C109.207 40.6022 109.678 46.0045 103.026 46.7933C96.3734 47.5846 91.4211 45.8003 91.6015 41.6318C92.2007 38.4039 92.7711 35.0736 92.8158 32.403C92.832 31.4107 92.7642 30.3574 92.5793 29.1682L105.469 28.9107L109.266 29.5309L109.217 38.875Z" fill="#FFB27D"></path>
  <path fill-rule="evenodd" clip-rule="evenodd" d="M109.266 29.5309L109.218 38.875C107.848 39.5116 106.303 39.9003 104.571 39.9003C98.6471 39.9003 94.8178 35.5558 92.8166 32.403C92.8328 31.4107 92.7649 30.3574 92.5801 29.1682L105.47 28.9107L109.266 29.5309Z" fill="#E2915A"></path>
  <path fill-rule="evenodd" clip-rule="evenodd" d="M91.5946 27.0937C93.0899 35.1424 103.476 34.8782 107.964 34.3723C109.227 34.2318 110.022 34.0704 110.022 34.0704C111.446 33.6901 112.241 31.4468 112.61 28.5085C113.342 22.6933 112.417 14.1574 111.435 11.9741C109.956 8.68898 107.171 5.13582 96.7126 7.6994C86.2519 10.2649 89.6755 16.781 91.5946 27.0937Z" fill="#FFB27D"></path>
  <path fill-rule="evenodd" clip-rule="evenodd" d="M126.136 64.0369C126.136 64.0369 132.599 78.3098 132.411 82.5876C132.411 82.5876 129.21 82.4787 126.136 83.3946C121.084 84.8996 126.136 64.0369 126.136 64.0369Z" fill="#E6B800"></path>
  <path fill-rule="evenodd" clip-rule="evenodd" d="M114.643 4.31305C114.643 4.31305 110.04 3.95899 104.609 1.59813C100.202 -0.31821 94.6421 1.79219 92.8372 2.74296C92.8858 2.45228 93.0017 2.05522 93.2773 1.65704C93.2773 1.65704 92.467 2.23169 92.3477 3.03503C92.2643 3.09646 92.2268 3.1389 92.2483 3.15314C92.2483 3.15314 91.3297 2.98505 90.7394 3.25059C90.7394 3.25059 91.1526 3.19167 91.3004 3.45722C91.3157 3.48514 91.3392 3.50888 91.3665 3.53038C84.4914 6.85206 83.8567 17.7171 86.069 20.2309C88.7306 23.2555 92.6733 29.9857 92.6733 29.9857C92.6733 29.9857 93.086 28.4581 92.6021 25.7962C92.1182 23.1346 94.4168 23.1346 97.3205 21.9247C100.224 20.7148 97.8047 17.3273 100.345 15.2705C102.886 13.2137 112.202 14.4236 112.081 12.8507C115.539 11.5911 114.643 4.66711 114.643 4.31305Z" fill="#555770"></path>
  <path fill-rule="evenodd" clip-rule="evenodd" d="M89.4888 90.7716C92.2174 101.728 121.722 107.388 128.429 108.539C128.146 103.789 127.872 97.769 127.676 90.1573L89.4888 90.7716Z" fill="#E6B800"></path>
  <path fill-rule="evenodd" clip-rule="evenodd" d="M95.9631 94.3348C95.682 94.3348 89.4041 93.3966 88.2797 92.8354C87.1552 92.2713 82.0124 84.964 85.3804 83.0903C88.7482 81.2167 97.7893 88.7112 97.7893 88.7112L95.9631 94.3348Z" fill="#FFB27D"></path>
  <path fill-rule="evenodd" clip-rule="evenodd" d="M134.146 96.5043C134.146 96.5043 109.866 97.8223 93.5713 94.3347C93.5713 94.3347 93.1606 89.6269 98.2816 87.5355C98.2816 87.5355 123.677 82.152 129.778 83.6515C135.879 85.1509 134.146 96.5043 134.146 96.5043Z" fill="#FFCC00"></path>
  <path fill-rule="evenodd" clip-rule="evenodd" d="M78.3884 77.4498C83.4273 83.5258 90.0146 88.4876 97.2764 89.6492L97.2781 89.6464C97.3381 89.5543 99.4765 86.3097 99.0755 81.5377C98.8898 79.329 98.161 76.7936 96.4312 74.0935C95.899 73.2642 95.4249 72.2925 95.0032 71.2147C91.0377 61.098 91.6282 41.5968 91.6282 41.5968C91.6282 41.5968 74.7883 43.3604 69.5411 50.8565C66.3272 55.4478 70.4257 67.8444 78.3884 77.4498Z" fill="#FFCC00"></path>
  <path fill-rule="evenodd" clip-rule="evenodd" d="M107.961 34.3725C109.225 34.232 110.019 34.0706 110.019 34.0706C111.443 33.6903 112.238 31.447 112.607 28.5087C109.937 29.1666 108.713 31.2298 108.203 32.1085C107.973 32.5042 107.926 33.3904 107.961 34.3725Z" fill="#E2915A"></path>
  <path fill-rule="evenodd" clip-rule="evenodd" d="M114.748 38.925C114.748 38.925 120.564 29.328 116.041 28.9105C111.518 28.4931 109.701 31.554 109.048 32.6784C108.395 33.8028 109.219 38.8747 109.219 38.8747L114.748 38.925Z" fill="#FFB27D"></path>
  <path fill-rule="evenodd" clip-rule="evenodd" d="M92.5824 81.2166C92.7603 82.4312 93.1241 83.5509 93.5737 84.5478C94.9941 87.7002 97.2768 89.6492 97.2768 89.6492L97.2785 89.6464C112.383 82.8277 115.44 59.417 115.951 46.5536C116.158 41.3832 115.951 37.9163 115.951 37.9163C109.138 35.6601 107.222 39.5805 107.222 39.5805C107.222 39.5805 99.1769 58.7123 95.0036 71.2147C93.407 76.0006 92.378 79.8149 92.5824 81.2166Z" fill="#FFCC00"></path>
  <path fill-rule="evenodd" clip-rule="evenodd" d="M78.3867 77.45C83.4256 83.526 90.0129 88.4879 97.2748 89.6494L97.2764 89.6467C112.381 82.8279 115.438 59.4173 115.949 46.5538C115.949 46.5538 108.802 72.477 99.0738 81.5379C97.3161 83.177 95.4721 84.266 93.5716 84.548C93.5716 84.548 81.3044 81.08 78.7313 77.8158C78.5478 77.5813 78.4353 77.4668 78.3867 77.45Z" fill="#E6B800"></path>
  <path fill-rule="evenodd" clip-rule="evenodd" d="M828.51 227.108C828.51 227.108 822.559 220.165 828.143 215.757C828.143 215.757 832.221 213.287 835.545 213.487C835.545 213.487 830.833 221.388 832.358 222.176C833.883 222.961 836.973 212.993 836.973 212.993C836.973 212.993 846.255 212.091 849.239 213.528C849.239 213.528 841.307 220.019 842.978 220.406C844.649 220.792 853.218 214.421 853.218 214.421C853.218 214.421 861.855 215.889 861.396 221.159C860.935 226.429 857.959 228.055 856.65 227.915C855.341 227.776 847.69 224.854 847.523 225.927C847.357 226.998 851.963 230.502 855.188 230.666C855.188 230.666 849.098 237.382 845.052 235.443C841.003 233.504 840.657 230.432 838.136 229.28C835.612 228.127 833.458 228.131 834.501 229.305C835.543 230.481 840.108 231.622 841.55 234.174C842.994 236.727 844.287 238.448 840.101 237.818C835.914 237.188 829.106 234.125 828.807 230.616C828.51 227.108 828.51 227.108 828.51 227.108Z" fill="#05A660"></path>
  <path fill-rule="evenodd" clip-rule="evenodd" d="M857.151 221.301C857.151 221.301 833.688 220.396 828.509 227.108C828.509 227.108 827.362 230.538 823.835 233.664L823.286 235.162C823.286 235.162 827.353 230.875 828.806 230.616C828.806 230.616 826.532 222.304 857.151 221.301Z" fill="#00894D"></path>
  <path fill-rule="evenodd" clip-rule="evenodd" d="M823.834 233.664C823.834 233.664 818.798 237.388 818.45 244.041L819.363 244.124C819.363 244.124 820.971 237.244 823.879 234.552C826.785 231.862 823.834 233.664 823.834 233.664Z" fill="#00894D"></path>
  <path fill-rule="evenodd" clip-rule="evenodd" d="M807.703 218.377C807.703 218.377 817.167 213.076 812.749 205.883C812.749 205.883 809.216 201.466 805.429 200.33C805.429 200.33 807.448 211.056 805.429 211.31C803.411 211.562 804.041 199.194 804.041 199.194C804.041 199.194 794.071 194.397 790.16 194.777C790.16 194.777 796.342 205.251 794.325 204.999C792.305 204.747 785.362 194.145 785.362 194.145C785.362 194.145 775.14 192.251 773.501 198.311C771.859 204.367 774.511 207.397 776.024 207.775C777.538 208.155 787.256 208.029 787.004 209.291C786.752 210.552 780.19 212.572 776.528 211.436C776.528 211.436 780.567 221.406 785.868 220.9C791.17 220.396 792.809 217.115 796.091 216.863C799.372 216.609 801.769 217.493 800.13 218.377C798.488 219.261 792.935 218.667 790.286 220.921C787.636 223.172 785.491 224.562 790.412 225.569C795.333 226.579 804.167 225.949 805.935 222.162C807.703 218.377 807.703 218.377 807.703 218.377Z" fill="#05A660"></path>
  <path fill-rule="evenodd" clip-rule="evenodd" d="M778.172 200.204C778.172 200.204 804.675 208.785 807.704 218.377C807.704 218.377 807.576 222.668 810.228 227.589V229.483C810.228 229.483 807.45 223.046 805.937 222.162C805.937 222.162 811.867 213.834 778.172 200.204Z" fill="#00894D"></path>
  <path fill-rule="evenodd" clip-rule="evenodd" d="M810.228 227.589C810.228 227.589 814.314 233.796 811.984 241.351L810.934 241.07C810.934 241.07 811.953 232.748 809.816 228.563C807.677 224.377 810.228 227.589 810.228 227.589Z" fill="#00894D"></path>
  <path fill-rule="evenodd" clip-rule="evenodd" d="M822.762 211.067C822.762 211.067 810.284 204.079 816.107 194.597C816.107 194.597 820.765 188.774 825.755 187.277C825.755 187.277 823.095 201.419 825.755 201.749C828.418 202.082 827.586 185.779 827.586 185.779C827.586 185.779 840.73 179.459 845.887 179.958C845.887 179.958 837.734 193.765 840.397 193.432C843.058 193.099 852.207 179.126 852.207 179.126C852.207 179.126 865.683 176.629 867.845 184.616C870.008 192.6 866.515 196.592 864.518 197.092C862.521 197.591 849.713 197.424 850.045 199.089C850.378 200.753 859.028 203.414 863.853 201.916C863.853 201.916 858.529 215.059 851.543 214.394C844.555 213.728 842.392 209.403 838.067 209.07C833.742 208.737 830.582 209.902 832.743 211.067C834.907 212.23 842.225 211.447 845.72 214.418C849.213 217.387 852.04 219.218 845.554 220.549C839.065 221.881 827.42 221.049 825.09 216.058C822.762 211.067 822.762 211.067 822.762 211.067Z" fill="#39D98A"></path>
  <path fill-rule="evenodd" clip-rule="evenodd" d="M861.691 187.11C861.691 187.11 826.754 198.423 822.761 211.067C822.761 211.067 822.928 216.724 819.435 223.21V225.707C819.435 225.707 823.094 217.223 825.089 216.058C825.089 216.058 817.271 205.078 861.691 187.11Z" fill="#00894D"></path>
  <path fill-rule="evenodd" clip-rule="evenodd" d="M819.438 223.21C819.438 223.21 814.049 231.392 817.121 241.351L818.506 240.98C818.506 240.98 817.161 230.009 819.98 224.492C822.798 218.975 819.438 223.21 819.438 223.21Z" fill="#00894D"></path>
  <path fill-rule="evenodd" clip-rule="evenodd" d="M822.341 262.949C835.84 262.949 846.782 252.005 846.782 238.508H797.9C797.9 252.005 808.842 262.949 822.341 262.949Z" fill="#1C1C28"></path>
  <path fill-rule="evenodd" clip-rule="evenodd" d="M847.12 264.193H797.564C797.564 262.526 798.913 261.177 800.58 261.177H844.104C845.771 261.177 847.12 262.526 847.12 264.193Z" fill="#1C1C28"></path>
  <path fill-rule="evenodd" clip-rule="evenodd" d="M797.097 239.257H847.337V238.508H797.097V239.257Z" fill="#1C1C28"></path>
  <path fill-rule="evenodd" clip-rule="evenodd" d="M680.771 3.66415C675.807 1.09021 671.834 2.70784 671.834 2.70784C656.653 0.924879 652.224 18.6301 652.429 24.7222C652.633 30.8134 653.331 37.3571 646.551 45.2715C626.965 68.1308 667.981 69.142 667.981 69.142C668.329 50.8751 690.222 57.541 689.263 59.3897C717.332 66.127 692.055 9.51802 680.771 3.66415Z" fill="#555770"></path>
  <path fill-rule="evenodd" clip-rule="evenodd" d="M622.213 79.8091C622.213 79.8091 619.542 75.7456 617.389 75.665C615.24 75.5874 611.254 74.4708 611.573 75.2679C611.89 76.0651 614.362 76.1458 614.601 76.6235C614.839 77.1011 610.934 77.8177 609.817 77.8983C608.704 77.9759 606.074 77.8983 606.154 78.4567C606.232 79.0119 610.894 81.3259 614.182 81.0064C617.47 80.6869 621.533 81.9618 621.533 81.9618L622.213 79.8091Z" fill="#FFB27D"></path>
  <path fill-rule="evenodd" clip-rule="evenodd" d="M660.818 81.1247C660.818 81.1247 659.367 84.0001 656.736 87.3005C653.563 91.2741 648.671 95.8648 642.53 96.7706C639.595 97.2049 636.726 96.5721 634.089 95.3996C634.083 95.3996 634.08 95.3996 634.08 95.3996C626.62 92.0868 621.012 84.4716 621.012 84.4716C619.697 80.8859 621.849 78.454 621.849 78.454C621.849 78.454 636.912 81.8443 638.345 81.1247C639.781 80.4082 648.147 56.3035 650.138 53.2729C652.133 50.2424 658.923 48.6697 658.923 48.6697L660.818 81.1247Z" fill="#6600CC"></path>
  <path fill-rule="evenodd" clip-rule="evenodd" d="M656.739 87.3003C653.566 91.2738 648.674 95.8646 642.532 96.7703C639.598 97.2046 636.729 96.5718 634.092 95.3993C634.384 95.4396 641.834 96.3578 644.803 91.0474C647.833 85.6284 651.109 77.0206 655.607 79.8899C657.548 81.1275 657.462 84.2046 656.739 87.3003Z" fill="#F2CCAA"></path>
  <path fill-rule="evenodd" clip-rule="evenodd" d="M717.014 243.709C717.014 243.709 721.611 247.906 720.714 250.884C719.818 253.865 715.667 255.853 715.109 259.495C714.548 263.136 712.305 265.125 710.289 265.125C708.269 265.125 700.67 265.125 700.67 265.125C700.67 265.125 699.184 262.56 702.77 261.787C706.359 261.015 707.711 256.734 707.485 252.761C707.261 248.787 707.823 243.489 707.823 243.489L715.444 241.724L717.014 243.709Z" fill="#8F90A6"></path>
  <path fill-rule="evenodd" clip-rule="evenodd" d="M678.117 245.493C678.117 245.493 679.77 263.261 677.754 264.253L651.931 264.2C651.931 264.2 651.931 261.22 656.078 260.559C660.225 259.895 667.511 257.466 668.746 252.06C669.977 246.65 678.117 245.493 678.117 245.493Z" fill="#8F90A6"></path>
  <path fill-rule="evenodd" clip-rule="evenodd" d="M696.518 118.018C691.204 106.101 687.951 102.679 688.571 98.9817C689.033 96.2272 687.166 47.6518 687.166 47.6518C686.536 47.4564 685.27 47.2827 684.579 47.1276C682.401 46.6437 680.596 45.1141 679.845 43.0114C678.943 40.4787 678.223 36.7384 678.239 32.0518L677.559 32.1858L666.113 34.4521C666.113 34.4521 666.374 38.0543 666.38 41.4471C666.38 41.4753 666.38 41.5036 666.38 41.5318C666.396 44.4786 664.463 47.0779 661.631 47.8968C660.186 48.3156 658.926 48.6692 658.926 48.6692C658.926 48.6692 654.723 60.6704 653.923 72.9941C653.12 85.321 661.563 90.678 653.858 115.31C645.991 140.466 699.452 124.6 696.518 118.018Z" fill="#FFB27D"></path>
  <path fill-rule="evenodd" clip-rule="evenodd" d="M666.112 34.4523C666.112 34.4523 666.373 38.0545 666.379 41.4473C672.784 41.2671 676.169 35.4244 677.558 32.1861L666.112 34.4523Z" fill="#E8945B"></path>
  <path fill-rule="evenodd" clip-rule="evenodd" d="M663.971 37.6652C663.971 37.6652 679.127 37.9152 679.136 28.4761C679.146 19.0371 681.109 12.7124 671.434 12.1541C661.76 11.5951 659.877 15.1948 659.108 18.3445C658.338 21.4941 660.032 37.3571 663.971 37.6652Z" fill="#FFB27D"></path>
  <path fill-rule="evenodd" clip-rule="evenodd" d="M664.534 11.9229C664.534 11.9229 668.685 22.9966 675.05 24.6338C681.418 26.2712 684.181 24.5652 684.181 24.5652C684.181 24.5652 679.296 20.6854 678.282 13.9127C678.282 13.9127 667.664 6.65216 664.534 11.9229Z" fill="#555770"></path>
  <path fill-rule="evenodd" clip-rule="evenodd" d="M665.562 12.822C665.562 12.822 662.485 13.9721 661.219 16.216C659.979 18.4103 658.924 21.3161 659.169 24.8814C659.169 24.8814 656.045 17.3547 659.557 13.0968C663.282 8.5817 665.562 12.822 665.562 12.822Z" fill="#555770"></path>
  <path fill-rule="evenodd" clip-rule="evenodd" d="M667.27 31.8099C667.27 31.8099 666.224 33.1856 664.134 33.0863C662.449 33.0066 661.798 31.545 661.798 31.545C661.798 31.545 664.894 30.8005 667.27 31.8099Z" fill="#EBF3FA"></path>
  <path fill-rule="evenodd" clip-rule="evenodd" d="M697.979 69.1417C697.979 69.1417 698.364 74.5669 697.979 81.0746C697.725 85.3894 693.357 91.1713 692.74 92.6012C691.186 96.187 689.433 96.7701 689.433 96.7701L675.875 100.092L671.107 101.262L656.073 96.7701C656.073 96.7701 649.227 77.6595 651.975 66.899C654.726 56.1417 658.926 48.6693 658.926 48.6693C658.926 48.6693 671.194 60.6829 687.166 47.6519L697.979 69.1417Z" fill="#6600CC"></path>
  <path fill-rule="evenodd" clip-rule="evenodd" d="M694.012 82.8366C693.754 87.1514 693.357 91.1714 692.74 92.6013C691.186 96.1871 689.433 96.7703 689.433 96.7703L675.875 100.092L669.985 98.3615C669.985 98.3615 689.644 95.3837 687.464 78.4723L694.012 82.8366Z" fill="#F2CCAA"></path>
  <path fill-rule="evenodd" clip-rule="evenodd" d="M657.029 99.6704C657.029 99.6704 649.584 122.845 649.103 130.733C648.626 138.624 663.335 242.813 663.927 246.448C664.486 249.876 668.741 252.06 668.741 252.06C668.741 252.06 670.699 253.214 673.49 252.426C677.368 251.331 678.59 250.022 678.59 250.022C678.59 250.022 684.387 175.713 680.798 149.17C677.213 122.624 677.172 99.6704 677.172 99.6704H657.029Z" fill="#FF8800"></path>
  <path fill-rule="evenodd" clip-rule="evenodd" d="M688.57 98.9818C688.57 98.9818 699.926 114.218 700.987 124.516C702.045 134.818 702.647 170.998 704.902 181.039C707.16 191.08 715.445 210.404 715.445 241.724C715.445 241.724 714.583 243.52 711.924 244.475C711.075 244.783 709.933 245.077 708.829 245.332C706.636 245.834 704.384 244.761 703.382 242.748C697.78 231.466 679.935 195.084 679.02 187.531C678.371 182.187 672.735 146.816 660.446 126.058C657.496 121.077 662.257 101.262 662.257 101.262L688.57 98.9818Z" fill="#FDAC42"></path>
  <path fill-rule="evenodd" clip-rule="evenodd" d="M666.936 32.0621C666.936 32.0621 666.672 33.1744 663.905 33.0026C663.905 33.0026 661.582 32.8592 661.653 31.6368C661.653 31.6368 663.905 30.7667 666.936 32.0621Z" fill="white"></path>
  <path fill-rule="evenodd" clip-rule="evenodd" d="M655.837 96.0944C655.837 96.0944 658.827 98.4581 664.764 98.579C671.855 98.7217 689.427 96.7706 689.427 96.7706C689.427 96.7706 690.209 98.9513 690.178 101.256C690.178 101.256 668.716 106.669 656.281 102.047C656.281 102.047 654.677 99.0288 655.837 96.0944Z" fill="#233862"></path>
  <path fill-rule="evenodd" clip-rule="evenodd" d="M663.064 98.4361C661.873 98.4361 660.902 99.5993 660.902 101.026C660.902 102.456 661.873 103.616 663.064 103.616C664.258 103.616 665.229 102.456 665.229 101.026C665.229 99.5993 664.258 98.4361 663.064 98.4361ZM663.064 104.69C661.281 104.69 659.829 103.046 659.829 101.026C659.829 99.0069 661.281 97.366 663.064 97.366C664.851 97.366 666.302 99.0069 666.302 101.026C666.302 103.046 664.851 104.69 663.064 104.69Z" fill="white"></path>
  <path fill-rule="evenodd" clip-rule="evenodd" d="M712.537 100.288L690.548 119.433L664.34 89.3352L686.33 70.1873L712.537 100.288Z" fill="#B5453C"></path>
  <path fill-rule="evenodd" clip-rule="evenodd" d="M684.474 100.356C684.474 100.356 676.415 101.299 676.44 103.21C676.468 105.124 678.45 109.054 679.443 109.228C680.438 109.401 686 103.914 686 103.914L684.474 100.356Z" fill="#FFB27D"></path>
  <path fill-rule="evenodd" clip-rule="evenodd" d="M687.166 47.6519C687.166 47.6519 697.923 48.4056 702.046 58.4278C706.168 68.4531 713.991 85.2808 713.991 88.1128C713.991 90.9448 709.623 99.6704 686.155 104.689C686.155 104.689 683.726 102.136 683.872 100.117C683.872 100.117 698.522 87.5328 698.485 86.0625C698.41 83.2801 696.081 79.6074 683.22 66.7409C679.721 63.2419 687.166 47.6519 687.166 47.6519Z" fill="#6600CC"></path>
  <path fill-rule="evenodd" clip-rule="evenodd" d="M454.434 264.465H454.318C453.618 264.465 453.054 263.888 453.071 263.191L454.958 181.321L460.523 180.671L455.78 263.195C455.737 263.908 455.147 264.465 454.434 264.465Z" fill="#B0D4FF"></path>
  <path fill-rule="evenodd" clip-rule="evenodd" d="M422.016 264.465H421.896C421.196 264.465 420.632 263.888 420.649 263.191L422.54 181.321L428.102 180.671L423.359 263.195C423.316 263.908 422.729 264.465 422.016 264.465Z" fill="#95C0F4"></path>
  <path fill-rule="evenodd" clip-rule="evenodd" d="M511.48 264.465H511.6C512.299 264.465 512.86 263.888 512.843 263.191L510.956 181.321L505.391 180.671L510.137 263.195C510.177 263.908 510.767 264.465 511.48 264.465Z" fill="#B0D4FF"></path>
  <path fill-rule="evenodd" clip-rule="evenodd" d="M418.328 176.243V120.144C418.328 110.273 426.331 102.27 436.202 102.27H476.62C486.491 102.27 494.494 110.273 494.494 120.144V178.389L418.328 176.243Z" fill="#B0D4FF"></path>
  <path fill-rule="evenodd" clip-rule="evenodd" d="M501.738 185.102H423.695C420.729 185.102 418.328 182.697 418.328 179.735V176.243H501.738V185.102Z" fill="#95C0F4"></path>
  <path fill-rule="evenodd" clip-rule="evenodd" d="M511.086 185.102H452.045C449.853 185.102 448.078 183.324 448.078 181.131V180.213C448.078 178.02 449.853 176.243 452.045 176.243H511.086C513.279 176.243 515.056 178.02 515.056 180.213V181.131C515.056 183.324 513.279 185.102 511.086 185.102Z" fill="#B0D4FF"></path>
  <path fill-rule="evenodd" clip-rule="evenodd" d="M508.796 162.266C503.004 172.342 495.724 176.233 495.724 176.233H465.426C465.426 176.233 513.213 154.578 508.796 162.266Z" fill="#233862"></path>
  <path fill-rule="evenodd" clip-rule="evenodd" d="M485.525 240.239C484.736 241.145 484.636 242.156 485.027 243.234C485.027 243.238 485.027 243.244 485.034 243.251C485.757 245.247 488.145 247.476 490.918 249.702C491.27 249.99 491.588 250.249 491.86 250.491C491.933 250.554 492.006 250.617 492.072 250.68C492.129 250.73 492.182 250.78 492.235 250.826C494.822 253.211 493.85 253.758 498.493 258.594C503.794 264.106 507.439 264.206 508.477 263.705C509.356 263.277 507.571 260.352 505.595 257.068C505.498 256.909 505.406 256.747 505.306 256.587C505.044 256.15 504.782 255.708 504.52 255.267C502.205 251.314 502.802 249.46 503.349 243.573C503.797 238.79 510.789 216.856 510.789 216.856L500.636 215.108C500.636 215.108 497.581 232.574 494.212 235.264C492.411 236.697 490.394 236.717 488.663 237.778C488.54 237.851 488.42 237.927 488.304 238.007C487.319 238.657 486.318 239.33 485.525 240.239Z" fill="#FFB27D"></path>
  <path fill-rule="evenodd" clip-rule="evenodd" d="M485.525 240.239C484.736 241.145 484.636 242.156 485.027 243.234C485.027 243.238 485.027 243.244 485.034 243.251C485.92 245.244 488.245 247.463 490.928 249.682C491.276 249.974 491.585 250.242 491.86 250.491C491.933 250.554 492.006 250.617 492.072 250.68C492.129 250.73 492.182 250.78 492.235 250.826C494.822 253.211 493.85 253.758 498.493 258.594C503.794 264.106 507.439 264.206 508.477 263.705C509.356 263.277 507.571 260.352 505.595 257.068C504.563 256.69 499.774 254.743 496.152 250.11C492.961 246.037 490.835 240.81 488.663 237.778C488.54 237.851 488.42 237.927 488.304 238.007C487.319 238.657 486.318 239.33 485.525 240.239Z" fill="#8F90A6"></path>
  <path fill-rule="evenodd" clip-rule="evenodd" d="M567.385 233.898C568.012 237.032 572.476 236.508 577.468 235.291C582.46 234.07 581.272 235.52 588.373 234.734C595.478 233.948 597.63 231.301 597.846 230.243C598.038 229.307 594.529 228.976 590.765 228.541C590.294 228.488 589.816 228.432 589.342 228.372C585.09 227.838 581.979 225.095 578.118 222.843C574.463 220.71 569.004 212.017 569.004 212.017L559.266 212.79C559.266 212.79 564.377 220.555 566.354 223.928C567.514 225.914 567.455 228.538 567.309 230.568C567.232 231.669 567.163 232.793 567.385 233.898Z" fill="#FFB27D"></path>
  <path fill-rule="evenodd" clip-rule="evenodd" d="M577.467 235.291C582.459 234.07 581.272 235.52 588.373 234.734C595.477 233.948 597.63 231.301 597.845 230.243C598.038 229.307 594.529 228.976 590.764 228.541L590.731 228.614C590.731 228.614 586.469 231.636 580.559 231.775C575.739 231.894 570.635 230.511 567.308 230.568C567.232 231.669 567.162 232.793 567.384 233.898C568.011 237.032 572.476 236.508 577.467 235.291Z" fill="#8F90A6"></path>
  <path fill-rule="evenodd" clip-rule="evenodd" d="M530.057 171.616L509.065 228.11C509.065 228.11 505.838 228.422 502.75 227.533C499.904 226.71 496.641 224.561 496.641 224.561C496.641 224.561 499.941 190.21 506.1 170.492C507.679 165.43 509.447 161.334 511.397 159.032C520.942 147.749 530.057 171.616 530.057 171.616Z" fill="#233862"></path>
  <path fill-rule="evenodd" clip-rule="evenodd" d="M520.797 132.704C514.833 130.78 497.818 133.251 480.727 136.594L477.148 130.694L440.233 127.812C440.233 127.812 428.051 154.823 434.717 172.037C435.699 174.568 437.646 176.19 440.966 176.243C440.969 176.246 441.503 176.243 441.507 176.243C441.507 176.243 463.477 176.229 470.611 176.229C488.972 176.229 509.467 163.609 512.117 163.082C516.458 162.213 518.193 170.893 522.531 180.004C526.873 189.118 563.324 220.363 563.324 220.363C563.324 220.363 568.926 220.418 571.241 219.549C573.732 218.617 574.641 217.407 574.641 217.407C574.641 217.407 534.249 137.042 520.797 132.704Z" fill="#2B478B"></path>
  <path fill-rule="evenodd" clip-rule="evenodd" d="M475.696 23.1993C470.966 20.7161 463.772 20.3804 462.601 20.2232C448.615 18.3433 440.193 38.6709 439.699 44.8301C438.787 56.1833 432.78 57.9147 424.326 65.0225C407.378 79.2812 412.346 95.845 421.616 102.001C427.175 105.696 436.979 102.001 436.979 102.001C437.115 102.097 463.785 87.0921 476.93 79.855C496.638 77.0523 487.746 29.5277 475.696 23.1993Z" fill="#555770"></path>
  <path fill-rule="evenodd" clip-rule="evenodd" d="M465.914 73.6925C465.974 73.729 459.446 75.9579 455.085 74.0275C450.979 72.2133 447.868 65.4571 447.931 65.4537C449.798 65.3675 451.848 63.7357 453.426 53.0226L454.222 53.3078L467.592 58.1204C467.592 58.1204 466.624 62.409 465.997 66.4952C465.47 69.9214 465.184 73.2083 465.914 73.6925Z" fill="#FFB27D"></path>
  <path fill-rule="evenodd" clip-rule="evenodd" d="M467.589 58.1203C467.589 58.1203 466.62 62.4089 465.993 66.4951C458.312 65.112 455.3 57.4603 454.219 53.3077L467.589 58.1203Z" fill="#ED975D"></path>
  <path fill-rule="evenodd" clip-rule="evenodd" d="M469.582 62.3754C469.582 62.3754 451.29 59.921 452.995 48.5545C454.7 37.1847 453.486 29.2122 465.237 30.2991C476.988 31.387 478.6 36.0636 478.955 39.9973C479.31 43.9276 474.385 62.7236 469.582 62.3754Z" fill="#FFB27D"></path>
  <path fill-rule="evenodd" clip-rule="evenodd" d="M478.286 33.7657C478.286 33.7657 466.577 43.8552 458.611 44.6711C450.647 45.4837 447.629 42.9265 447.629 42.9265C447.629 42.9265 452.325 39.0294 455.151 32.7375C455.984 30.8838 457.742 29.6115 459.768 29.4367C465.456 28.9458 476.236 28.7216 478.286 33.7657Z" fill="#555770"></path>
  <path fill-rule="evenodd" clip-rule="evenodd" d="M470.969 32.8604C470.969 32.8604 474.886 36.6481 476.12 39.4574C477.31 42.1705 477.669 48.6547 476.72 51.2285C476.72 51.2285 482.823 39.3612 479.367 33.5933C475.705 27.4809 470.969 32.8604 470.969 32.8604Z" fill="#555770"></path>
  <path fill-rule="evenodd" clip-rule="evenodd" d="M481.312 100.641C480.762 137.669 481.163 129.931 477.113 133.444C476.135 134.289 473.392 134.794 469.78 135.032C458.427 135.785 438.467 133.915 437.707 131.819C435.09 124.558 436.938 122.303 434.752 111.185C434.527 110.004 434.245 108.724 433.913 107.331C432.092 99.6959 430.318 97.0989 436.782 84.8335C442.643 73.7224 448.732 64.7075 449.279 65.0326C464.742 74.2133 465.992 66.4953 465.992 66.4953C465.992 66.4953 481.584 82.5782 481.312 100.641Z" fill="white"></path>
  <path fill-rule="evenodd" clip-rule="evenodd" d="M520.952 196.117L509.065 228.11C509.065 228.11 505.838 228.422 502.75 227.533C499.904 226.71 496.641 224.561 496.641 224.561C496.641 224.561 499.941 190.21 506.1 170.492L520.952 196.117Z" fill="#2B478B"></path>
  <path fill-rule="evenodd" clip-rule="evenodd" d="M465.996 66.495C465.996 66.495 481.907 69.1915 483.777 76.0439C485.645 82.893 496.639 123.168 496.639 123.168C496.639 123.168 488.55 124.621 484.815 120.886C481.077 117.148 471.81 86.2164 471.81 86.2164L465.996 66.495Z" fill="white"></path>
  <path fill-rule="evenodd" clip-rule="evenodd" d="M469.782 135.032C458.429 135.785 438.469 133.914 437.709 131.818C435.092 124.558 436.94 122.303 434.754 111.185L440.233 95.7653C440.233 95.7653 439.328 112.936 444.389 117.453C449.45 121.971 465.125 126.173 467.586 129.948C468.774 131.759 469.556 133.573 469.782 135.032Z" fill="#EBF3FF"></path>
  <path fill-rule="evenodd" clip-rule="evenodd" d="M456.773 127.812C456.773 127.812 467.974 125.317 469.782 126.309C471.589 127.304 476.007 130.923 476.561 132.183C477.115 133.443 472.535 131.228 471.049 130.83C470.084 130.571 467.546 131.453 466.289 131.871C461.002 133.632 457.762 132.727 457.762 132.727L456.773 127.812Z" fill="#FFB27D"></path>
  <path fill-rule="evenodd" clip-rule="evenodd" d="M449.27 65.0226C449.27 65.0226 434.229 65.9513 429.025 73.2116C421.695 83.4338 407.154 127.003 415.486 132.814C424.872 139.354 458.196 134.525 458.196 134.525C458.196 134.525 459.307 129.341 457.761 126.833C456.219 124.326 431.144 120.276 429.987 119.119C428.829 117.961 444.454 96.5515 444.454 93.0789C444.454 89.6063 449.27 65.0226 449.27 65.0226Z" fill="white"></path>
  <path fill-rule="evenodd" clip-rule="evenodd" d="M470.328 129.427C470.328 129.427 472.673 132.455 473.443 132.817C474.212 133.178 474.71 133.089 474.71 133.089L473.127 130.243L470.328 129.427Z" fill="#FFB27D"></path>
  <path fill-rule="evenodd" clip-rule="evenodd" d="M469.781 126.309L476.607 129.623C476.607 129.623 476.315 130.1 475.476 130.06C474.634 130.024 472.514 129.248 472.514 129.248L469.781 126.309Z" fill="#FFB27D"></path>
  <path fill-rule="evenodd" clip-rule="evenodd" d="M473.441 137.453H527.421L543.66 97.0753H489.763L473.441 137.453Z" fill="#FF8800"></path>
  <path fill-rule="evenodd" clip-rule="evenodd" d="M528.054 135.881H456.773V137.453H527.42L528.054 135.881Z" fill="#ED7D2B"></path>
  <path fill-rule="evenodd" clip-rule="evenodd" d="M513.796 117.264C514.204 115.845 513.382 114.694 511.962 114.694C510.543 114.694 509.063 115.845 508.655 117.264C508.247 118.684 509.07 119.835 510.489 119.835C511.909 119.835 513.388 118.684 513.796 117.264Z" fill="white"></path>
  <path fill-rule="evenodd" clip-rule="evenodd" d="M223.801 183.181H223.629C221.623 183.181 219.996 181.553 219.996 179.546V102.866C219.996 100.86 221.623 99.2313 223.629 99.2313H223.801C225.807 99.2313 227.434 100.86 227.434 102.866V179.546C227.434 181.553 225.807 183.181 223.801 183.181Z" fill="#B0D4FF"></path>
  <path fill-rule="evenodd" clip-rule="evenodd" d="M223.681 264.465H223.562C222.863 264.465 222.3 263.888 222.317 263.191L224.206 181.321L229.769 180.671L225.025 263.195C224.984 263.908 224.394 264.465 223.681 264.465Z" fill="#95C0F4"></path>
  <path fill-rule="evenodd" clip-rule="evenodd" d="M313.152 264.465H313.271C313.971 264.465 314.532 263.888 314.519 263.191L312.628 181.321L307.062 180.671L311.809 263.195C311.849 263.908 312.439 264.465 313.152 264.465Z" fill="#B0D4FF"></path>
  <path fill-rule="evenodd" clip-rule="evenodd" d="M312.755 176.243H219.996V179.735C219.996 182.697 222.399 185.102 225.363 185.102H312.755C314.947 185.102 316.725 183.324 316.725 181.131V180.213C316.725 178.02 314.947 176.243 312.755 176.243Z" fill="#B0D4FF"></path>
  <path fill-rule="evenodd" clip-rule="evenodd" d="M359.189 246.962C359.189 246.962 357.822 263.937 360.864 264.163C361.269 264.193 376.28 264.193 376.28 264.193L395.444 264.083C395.444 264.083 395.318 259.463 389.716 258.488C384.114 257.513 373.03 252.8 369.633 245.394C366.065 237.606 359.189 246.962 359.189 246.962Z" fill="#8F90A6"></path>
  <path fill-rule="evenodd" clip-rule="evenodd" d="M243.902 153.967C243.902 153.967 244.54 170.651 247.481 176.243H315.259C315.259 176.243 331.544 177.928 333.03 179.029C334.904 180.412 326.506 194.16 357.982 247.878L373.398 247.486C373.398 247.486 357.279 160.362 354.413 158.16C350.128 154.86 299.986 143.38 291.402 143.128C282.818 142.88 243.902 153.967 243.902 153.967Z" fill="#1C468A"></path>
  <path fill-rule="evenodd" clip-rule="evenodd" d="M281.9 55.1186C287.13 58.359 287.422 64.8134 287.422 64.8134C274.666 68.1103 256.105 53.9478 256.105 53.9478C256.105 53.9478 264.318 48.432 267.359 36.3093C267.512 35.6957 267.654 35.0689 267.777 34.4287C268.175 32.3856 268.424 30.1747 268.467 27.7889L284.072 41.7687C284.072 41.7687 283.85 45.3906 282.633 51.6227C282.421 52.7106 282.178 53.8781 281.9 55.1186Z" fill="#FFB27D"></path>
  <path fill-rule="evenodd" clip-rule="evenodd" d="M289.112 122.091C288.674 124.936 289.557 127.225 289.981 129.344C290.147 130.15 290.243 130.936 290.174 131.716C289.477 139.59 292.283 140.588 291.404 143.129C291.404 143.129 288.406 144.883 282.917 146.966C280.528 147.865 277.666 148.833 274.373 149.746C274.2 149.792 274.028 149.838 273.849 149.885C261.099 153.334 247.693 154.071 243.905 153.968C236.67 153.775 235.21 135.437 237.894 112.336C242.075 76.3527 247.729 58.9066 262.628 46.303C263.567 45.507 262.933 48.2101 267.941 50.6247C272.568 52.8502 278.15 53.371 282.482 52.4124L285.888 55.905C292.654 66.5948 293.364 79.2814 292.79 89.8585C292.061 103.228 290.369 113.898 289.112 122.091Z" fill="#06C270"></path>
  <path fill-rule="evenodd" clip-rule="evenodd" d="M284.075 41.7691C284.075 41.7691 284.593 41.2251 283.376 47.454C272.58 44.3329 269.064 38.8338 267.624 35.1887C267.213 34.1572 271.638 33.6099 274.331 33.0394L284.075 41.7691Z" fill="#ED975D"></path>
  <path fill-rule="evenodd" clip-rule="evenodd" d="M289.09 41.7987C289.09 41.7987 268.264 44.7838 266.606 31.7855C264.948 18.7865 261.143 10.4174 274.37 7.96364C287.598 5.51025 290.818 10.1398 292.427 14.3437C294.035 18.5474 294.463 40.6876 289.09 41.7987Z" fill="#FFB27D"></path>
  <path fill-rule="evenodd" clip-rule="evenodd" d="M367.473 138.134L369.065 138.634L382.113 96.9263L380.521 96.4288L367.473 138.134Z" fill="#1C468A"></path>
  <path fill-rule="evenodd" clip-rule="evenodd" d="M323.241 135.414L369.095 135.891L369.065 138.634L323.211 138.157L323.241 135.414Z" fill="#1C468A"></path>
  <path fill-rule="evenodd" clip-rule="evenodd" d="M259.97 8.22543C259.801 8.03073 259.413 7.87186 258.547 7.8178C258.547 7.8178 259.243 7.39094 260.169 7.37502C260.358 6.17303 261.018 4.04832 263.091 3.54683C263.091 3.54683 261.973 4.13124 261.817 5.40952C264.235 2.96474 269.389 1.21217 283.615 2.44766C302.361 4.07618 296.086 16.038 293.645 17.4506C291.207 18.8632 285.124 14.8898 280.597 15.2131C276.069 15.5365 275.157 22.0682 273.615 22.9531C272.073 23.8383 272.689 22.2566 270.62 21.3014C268.55 20.3465 268.325 23.7863 268.908 26.0284C269.489 28.2708 266.613 31.1982 266.613 31.1982C266.613 31.1982 266.613 31.1982 263.754 28.0712C260.895 24.9431 258.282 11.7674 259.615 8.97335C259.731 8.72692 259.847 8.47684 259.97 8.22543Z" fill="#555770"></path>
  <path fill-rule="evenodd" clip-rule="evenodd" d="M291.405 143.128C291.405 143.128 288.407 144.883 282.917 146.966C259.156 129.629 259.286 88.5912 259.156 87.8881L288.997 114.17L289.982 129.344C290.148 130.15 290.244 130.936 290.174 131.716C289.478 139.589 292.284 140.588 291.405 143.128Z" fill="#009755"></path>
  <path fill-rule="evenodd" clip-rule="evenodd" d="M334.418 123.825C334.418 123.825 336.328 124.137 338.345 123.188C340.362 122.243 347.317 119.255 348.624 119.663C349.93 120.07 354.196 122.478 355.201 122.936C356.206 123.394 357.98 125.742 357.98 125.742C357.244 126.485 354.65 124.78 353.496 124.813C352.338 124.843 343.788 129.513 341.247 129.616C338.707 129.719 334.746 129.198 334.746 129.198L334.418 123.825Z" fill="#FFB27D"></path>
  <path fill-rule="evenodd" clip-rule="evenodd" d="M349.914 124.197C349.937 124.336 353.038 127.795 355.403 126.697L352.813 124.137L349.914 124.197Z" fill="#FFB27D"></path>
  <path fill-rule="evenodd" clip-rule="evenodd" d="M338.348 123.188C338.348 123.188 341.13 120.611 342.052 119.374C342.052 119.374 342.61 119.626 342.633 120.097C342.669 120.88 341.903 122.319 341.903 122.319L338.348 123.188Z" fill="#FFB27D"></path>
  <path fill-rule="evenodd" clip-rule="evenodd" d="M283.606 61.958C268.313 52.6446 250.26 68.9166 257.849 85.1387C266.651 103.948 281.301 126.887 292.943 128.243C301.242 129.208 324.956 132.25 335.003 130.376C335.003 130.376 339.868 130.615 337.228 122.78C337.228 122.78 304.777 113.736 299.384 106.717C296.495 102.96 291.573 95.3477 283.961 62.1769C283.932 62.041 283.726 62.031 283.606 61.958Z" fill="#06C270"></path>
  <path fill-rule="evenodd" clip-rule="evenodd" d="M694.864 264.465H695.027C695.992 264.465 696.772 263.669 696.748 262.704L694.138 149.606L686.453 148.707L693.007 262.71C693.063 263.695 693.876 264.465 694.864 264.465Z" fill="#739AF0"></path>
  <path fill-rule="evenodd" clip-rule="evenodd" d="M316.951 264.465H316.788C315.823 264.465 315.044 263.669 315.067 262.704L317.677 149.606L325.362 148.707L318.808 262.71C318.752 263.695 317.939 264.465 316.951 264.465Z" fill="#739AF0"></path>
  <path fill-rule="evenodd" clip-rule="evenodd" d="M701.565 151.686H309.277C306.424 151.686 304.109 149.371 304.109 146.518V143.208C304.109 140.352 306.424 138.037 309.277 138.037H701.565C704.417 138.037 706.732 140.352 706.732 143.208V146.518C706.732 149.371 704.417 151.686 701.565 151.686Z" fill="#739AF0"></path>
  <path fill-rule="evenodd" clip-rule="evenodd" d="M643.297 138.037H589.317L573.078 97.6593H626.975L643.297 138.037Z" fill="#2B478B"></path>
  <path fill-rule="evenodd" clip-rule="evenodd" d="M588.688 136.465H659.968V138.037H589.321L588.688 136.465Z" fill="#2B478B"></path>
  <path fill-rule="evenodd" clip-rule="evenodd" d="M602.943 117.848C602.539 116.429 603.358 115.278 604.777 115.278C606.197 115.278 607.676 116.429 608.084 117.848C608.492 119.268 607.67 120.419 606.25 120.419C604.83 120.419 603.351 119.268 602.943 117.848Z" fill="white"></path>
  <path fill-rule="evenodd" clip-rule="evenodd" d="M920 263.781V263.927C920 264.161 919.529 264.354 918.96 264.354H1.04248C0.470849 264.354 0 264.161 0 263.927V263.781C0 263.546 0.470849 263.354 1.04248 263.354H918.96C919.529 263.354 920 263.546 920 263.781Z" fill="#31366D"></path>
</svg>
