<svg xmlns="http://www.w3.org/2000/svg" fill="none" viewBox="0 0 500 500"><path d="M278.488 450.265c110.457 0 200-89.543 200-200s-89.543-200-200-200-200 89.543-200 200 89.543 200 200 200Z" fill="#6556FF" opacity=".2"/><path d="M232.733 348.482c52.999 21.443 139.257 21.369 168.195-30.644 29.689-53.366-15.446-135.391-76.337-165.197-5.247-2.572-71.458-33.627-128.204 4.865-3.322 2.248-54.615 38.242-50.867 93.798 4.291 63.624 76.675 92.901 87.213 97.178Z" fill="#D0D4DD" opacity=".3"/><path d="M277.811 316.824c36.819 0 66.667-29.848 66.667-66.667s-29.848-66.666-66.667-66.666-66.666 29.847-66.666 66.666c0 36.819 29.847 66.667 66.666 66.667Z" fill="#D0D4DD" opacity=".3"/><path d="M65.269 179.448a2.44 2.44 0 1 0-4.82-.778 2.44 2.44 0 0 0 4.82.778Zm7.242 1.323a2.44 2.44 0 1 0-3.45-3.45 2.44 2.44 0 0 0 3.45 3.45Zm8.574-1.162a2.44 2.44 0 1 0-4.75-1.113 2.44 2.44 0 0 0 4.75 1.113Z" fill="#000"/><path d="M194.462 77.817H154.5c-6.863 0-12.434 5.57-12.434 12.434v10.582c0 6.864 5.571 12.434 12.434 12.434h29.16l9.303 9.303v-9.303h1.484c6.864 0 12.434-5.57 12.434-12.434V90.251c.015-6.863-5.555-12.434-12.419-12.434Z" fill="#fff"/><path d="M192.98 122.864a.29.29 0 0 1-.206-.088l-9.215-9.215h-29.042c-7.011 0-12.728-5.702-12.728-12.728V90.251c0-7.01 5.703-12.728 12.728-12.728h39.962c7.01 0 12.727 5.703 12.727 12.728v10.582c0 7.011-5.702 12.728-12.727 12.728h-1.191v9.009a.29.29 0 0 1-.176.265.418.418 0 0 1-.132.029Zm-38.463-44.753c-6.687 0-12.14 5.438-12.14 12.14v10.582c0 6.688 5.438 12.14 12.14 12.14h29.159c.074 0 .147.03.206.088l8.804 8.804v-8.598c0-.162.132-.294.294-.294h1.484c6.687 0 12.14-5.438 12.14-12.14V90.251c0-6.687-5.438-12.14-12.14-12.14h-39.947Z" fill="#000"/><path d="M162.689 99.187a3.63 3.63 0 1 0 0-7.26 3.63 3.63 0 0 0 0 7.26Zm11.801 0a3.63 3.63 0 1 0-.001-7.261 3.63 3.63 0 0 0 .001 7.261Zm11.8 0a3.63 3.63 0 1 0 0-7.261 3.63 3.63 0 0 0 0 7.261Z" fill="#000"/><path d="M406.398 266.163h-7.29c-7.319 0-13.256 5.937-13.256 13.256v20.547h20.546c7.319 0 13.257-5.937 13.257-13.257v-7.29c0-7.319-5.938-13.256-13.257-13.256Z" fill="#fff"/><path d="M406.395 300.26h-20.546a.294.294 0 0 1-.294-.294v-20.547c0-7.466 6.084-13.55 13.551-13.55h7.289c7.467 0 13.551 6.084 13.551 13.55v7.29c0 7.467-6.07 13.551-13.551 13.551Zm-20.252-.588h20.252c7.143 0 12.963-5.82 12.963-12.963v-7.29c0-7.142-5.82-12.962-12.963-12.962h-7.289c-7.143 0-12.963 5.82-12.963 12.962v20.253Z" fill="#000"/><path d="M274.517 85.534c-9.377 0-16.99 7.613-16.99 16.99 0 2.998.779 5.82 2.146 8.274a2.74 2.74 0 0 1-.47 3.322l-3.895 3.806c-.588.574-.176 1.588.647 1.588h18.562c9.377 0 16.99-7.613 16.99-16.99 0-9.377-7.613-16.99-16.99-16.99Z" fill="#D0D4DD"/><path d="M274.515 119.808h-18.563a1.21 1.21 0 0 1-1.131-.765c-.191-.47-.088-.97.279-1.322l3.895-3.807a2.45 2.45 0 0 0 .411-2.969 17.34 17.34 0 0 1-2.19-8.421c0-9.524 7.761-17.284 17.284-17.284a17.11 17.11 0 0 1 12.214 5.07c3.263 3.278 5.07 7.614 5.07 12.214.015 9.524-7.745 17.284-17.269 17.284Zm0-33.98c-9.2 0-16.696 7.495-16.696 16.696 0 2.851.735 5.658 2.116 8.127a3.093 3.093 0 0 1-.514 3.689l-3.895 3.807c-.22.22-.22.5-.147.691a.614.614 0 0 0 .588.396h18.563c9.2 0 16.696-7.495 16.696-16.696 0-4.453-1.734-8.642-4.894-11.801-3.175-3.175-7.364-4.91-11.817-4.91Zm130.353 253.527h-2.587v-.588h2.587c.838 0 1.528-.691 1.528-1.529v-16.255c0-.838-.69-1.528-1.528-1.528h-2.587v-.588h2.587c1.176 0 2.116.955 2.116 2.116v16.255a2.127 2.127 0 0 1-2.116 2.117Z" fill="#000"/><path d="M411.102 339.355h-2.587a2.118 2.118 0 0 1-2.117-2.117v-16.255c0-1.176.956-2.116 2.117-2.116h2.587v.588h-2.587c-.838 0-1.529.69-1.529 1.528v16.255c0 .838.691 1.529 1.529 1.529h2.587v.588Z" fill="#000"/><path d="M91.156 276.2v-17.445c0-9.554-7.745-17.284-17.284-17.284H39.628c-9.553 0-17.284 7.745-17.284 17.284v.147c0 9.553 7.745 17.284 17.284 17.284h51.528v.014Z" fill="#fff"/><path d="M91.157 276.494H39.63c-9.7 0-17.578-7.892-17.578-17.578v-.147c0-9.7 7.892-17.578 17.578-17.578h34.244c9.7 0 17.578 7.893 17.578 17.578v17.446c0 .147-.132.279-.294.279ZM39.63 241.765c-9.377 0-16.99 7.627-16.99 16.99v.147c0 9.376 7.628 16.99 16.99 16.99h51.234V258.74c0-9.377-7.628-16.99-16.99-16.99H39.63v.015Z" fill="#000"/><path d="M445.449 213.878c13.224-8.728 21.088-20.131 17.564-25.469-3.523-5.339-17.099-2.591-30.323 6.137-13.224 8.729-21.088 20.132-17.564 25.47 3.523 5.338 17.1 2.59 30.323-6.138Z" fill="#fff"/><path d="M421.936 223.041c-3.38 0-5.82-.97-7.069-2.866-1.779-2.689-.882-6.878 2.498-11.802 3.336-4.835 8.716-9.847 15.138-14.094 6.423-4.248 13.14-7.217 18.901-8.392 5.849-1.191 10.053-.353 11.831 2.336 1.779 2.69.882 6.879-2.498 11.802-3.337 4.836-8.716 9.847-15.139 14.095-6.422 4.247-13.139 7.216-18.9 8.392-1.734.367-3.336.529-4.762.529Zm34.274-37.066c-1.396 0-2.954.176-4.674.514-5.688 1.147-12.331 4.101-18.695 8.304-6.364 4.203-11.684 9.156-14.991 13.933-3.248 4.703-4.13 8.657-2.498 11.141 1.631 2.469 5.614 3.218 11.228 2.087 5.688-1.147 12.331-4.101 18.695-8.304 6.364-4.204 11.684-9.157 14.991-13.933 3.248-4.703 4.13-8.657 2.499-11.141-1.132-1.719-3.395-2.601-6.555-2.601Z" fill="#000"/><path d="M336.586 276.641c-1.205 2.734-6.305 3.131-11.405.882-5.085-2.248-8.231-6.29-7.025-9.024 1.205-2.734 6.305-3.13 11.405-.882 5.085 2.249 8.23 6.291 7.025 9.024Z" fill="url(#a)" opacity=".1"/><path d="M331.515 279.272c-1.999 0-4.262-.514-6.452-1.484-2.498-1.102-4.629-2.675-5.982-4.409-1.396-1.793-1.822-3.572-1.19-4.997.632-1.426 2.219-2.308 4.497-2.484 2.205-.177 4.792.338 7.29 1.455 2.499 1.102 4.63 2.675 5.982 4.409 1.396 1.793 1.822 3.571 1.19 4.997-.632 1.426-2.219 2.307-4.497 2.484-.265.029-.544.029-.838.029Zm-8.289-12.816c-.279 0-.544.015-.808.03-2.043.161-3.454.911-3.998 2.131-1.146 2.586 1.94 6.452 6.878 8.627 4.939 2.175 9.877 1.852 11.009-.735.543-1.22.147-2.778-1.117-4.394-1.294-1.661-3.337-3.175-5.762-4.233-2.101-.926-4.277-1.426-6.202-1.426Z" fill="#000"/><path d="M351.064 271.321c-2.292 5.188-11.978 5.938-21.634 1.676-9.656-4.263-15.623-11.935-13.33-17.123 2.292-5.188 11.978-5.937 21.634-1.675 9.641 4.277 15.623 11.934 13.33 17.122Z" fill="#D7E7FF" opacity=".3"/><path d="M341.436 276.054c-3.763 0-8.01-.97-12.14-2.793-4.718-2.087-8.716-5.026-11.258-8.304-2.587-3.321-3.381-6.599-2.22-9.2 1.162-2.616 4.101-4.233 8.304-4.556 4.13-.324 9.01.646 13.713 2.733 4.718 2.087 8.715 5.027 11.258 8.304 2.587 3.322 3.38 6.599 2.219 9.201-1.161 2.616-4.1 4.233-8.304 4.556-.499.044-1.029.059-1.572.059ZM325.68 251.73c-4.541 0-8.069 1.455-9.318 4.277-1.058 2.41-.294 5.467 2.146 8.612 2.484 3.19 6.408 6.085 11.038 8.128 4.629 2.043 9.391 2.998 13.433 2.689 3.968-.308 6.746-1.807 7.804-4.203 2.219-5.026-3.689-12.537-13.183-16.725-4.174-1.882-8.363-2.778-11.92-2.778Z" fill="#000"/><path d="M370.686 260.695c-4.6 10.406-20.517 13.448-35.567 6.79s-23.53-20.473-18.93-30.864c4.6-10.406 20.517-13.448 35.567-6.79 15.035 6.643 23.516 20.458 18.93 30.864Z" fill="#90BCFF" opacity=".5"/><path d="M351.049 271.307c-5.217 0-10.743-1.206-16.049-3.557-7.334-3.233-13.36-8.26-16.961-14.139-3.63-5.908-4.379-11.993-2.116-17.107 2.263-5.115 7.26-8.657 14.08-9.965 6.775-1.293 14.55-.221 21.884 3.013 7.334 3.233 13.36 8.26 16.961 14.139 3.63 5.908 4.379 11.992 2.116 17.107-2.263 5.115-7.26 8.657-14.08 9.965a30.483 30.483 0 0 1-5.835.544Zm-15.255-44.709c-8.936 0-16.447 3.586-19.342 10.141-2.175 4.938-1.44 10.817 2.087 16.564 3.542 5.776 9.48 10.714 16.696 13.903 7.231 3.189 14.874 4.248 21.532 2.969 6.613-1.264 11.463-4.674 13.653-9.627 4.527-10.229-3.909-23.912-18.783-30.482-5.364-2.337-10.817-3.468-15.843-3.468Z" fill="#000"/><path d="M392.673 160.563c-24.47-10.803-45.105-11.714-53.483 1.234-7.731 11.934-10.597 21.796-14.124 37.846-3.174 14.447-3.674 13.55-2.454 28.159.808 9.745 7.936 21.356 21.105 27.161 8.98 3.968 18.254 4.483 25.264 2.058 4.748-1.647 20.474-9.671 29.086-17.74 21.811-20.444 25.853-29.586 29.718-38.345 5.071-11.493-10.655-29.571-35.112-40.373Z" fill="#fff"/><path d="M359.65 258.77c-.853 0-1.72-.029-2.587-.103-4.512-.338-9.054-1.499-13.463-3.454-6.187-2.733-11.478-6.951-15.3-12.198-3.424-4.703-5.555-10.112-5.981-15.212-1.059-12.698-.838-13.698 1.337-23.207.323-1.455.705-3.101 1.132-5.026 3.689-16.814 6.613-26.294 14.168-37.949 2.087-3.218 4.967-5.658 8.583-7.275 3.469-1.558 7.628-2.351 12.375-2.366h.176c9.083 0 20.385 2.881 32.716 8.319 11.876 5.247 22.076 12.345 28.734 20.003 6.716 7.716 9.024 15.079 6.525 20.752-3.895 8.818-7.922 17.931-29.791 38.433-8.583 8.04-24.353 16.123-29.189 17.813-2.836.97-6.055 1.47-9.435 1.47Zm.426-106.217h-.177c-9.568.044-16.461 3.204-20.473 9.392-7.495 11.581-10.406 21.002-14.08 37.757a517.34 517.34 0 0 1-1.132 5.041c-2.145 9.436-2.366 10.42-1.322 23.031.764 9.127 7.525 21.002 20.929 26.925 8.524 3.762 17.886 4.527 25.044 2.043 4.806-1.661 20.458-9.7 28.983-17.681 21.781-20.414 25.779-29.483 29.659-38.242 2.41-5.438.117-12.596-6.438-20.121-6.599-7.598-16.74-14.638-28.527-19.856-12.243-5.423-23.472-8.289-32.466-8.289Z" fill="#000"/><path d="M427.773 200.888c5.073-11.487-10.648-29.558-35.114-40.363-24.466-10.805-48.412-10.253-53.485 1.234s10.648 29.558 35.114 40.363c24.466 10.805 48.412 10.252 53.485-1.234Z" fill="#D0D4DD"/><path d="M407.121 210.196c-9.891 0-21.532-2.749-32.951-7.79-11.876-5.247-22.076-12.346-28.733-20.003-6.717-7.716-9.025-15.079-6.526-20.752 2.498-5.673 9.509-8.907 19.738-9.142 10.156-.235 22.267 2.528 34.142 7.775 11.875 5.247 22.075 12.345 28.733 20.003 6.717 7.716 9.024 15.079 6.526 20.752-2.499 5.659-9.509 8.907-19.739 9.142a30.72 30.72 0 0 1-1.19.015Zm-47.281-57.099c-.397 0-.794 0-1.191.015-9.979.235-16.799 3.351-19.209 8.803-4.997 11.317 10.685 29.248 34.965 39.977 24.28 10.729 48.104 10.244 53.101-1.073s-10.685-29.248-34.965-39.977c-11.331-5.026-22.883-7.745-32.701-7.745Z" fill="#000"/><path d="M419.689 178.185c-6.628-6.864-16.182-13.242-26.867-17.96-13.55-5.982-27.469-8.73-38.183-7.51l-.397.044.074.397c1.807 9.127 6.643 17.93 13.962 25.426 7.496 7.686 17.225 13.565 28.101 17.004 6.952 2.19 14.08 3.307 21.091 3.307 3.821 0 7.598-.323 11.272-.999l.28-.044.029-.279c.573-5.659-2.748-12.552-9.362-19.386Z" fill="#000"/><path d="M449.077 146.77c1.585-12.604-2.771-23.531-9.729-24.406-6.958-.875-13.884 8.633-15.47 21.237-1.585 12.603 2.771 23.53 9.729 24.406 6.958.875 13.884-8.633 15.47-21.237Z" fill="#B3B8C6"/><path d="M434.503 168.426c-.309 0-.632-.015-.941-.059-3.498-.441-6.481-3.292-8.363-8.025-1.866-4.659-2.454-10.626-1.69-16.784.779-6.158 2.837-11.787 5.791-15.843 2.998-4.13 6.584-6.159 10.097-5.718 3.498.441 6.481 3.292 8.363 8.025 1.866 4.659 2.454 10.626 1.69 16.784-.779 6.158-2.837 11.787-5.791 15.844-2.748 3.762-5.967 5.776-9.156 5.776Zm3.939-45.738c-6.452 0-12.713 9.112-14.213 20.973-1.558 12.375 2.661 23.148 9.421 23.986 3.234.411 6.57-1.514 9.407-5.409 2.88-3.953 4.894-9.465 5.658-15.505 1.558-12.375-2.66-23.148-9.421-23.986a5.547 5.547 0 0 0-.852-.059Z" fill="#000"/><path d="M442.464 145.053c3.19-25.361-19.745-49.13-51.226-53.09-31.482-3.96-59.589 13.389-62.779 38.75-3.19 25.361 19.745 49.13 51.227 53.09 31.481 3.959 59.588-13.39 62.778-38.75Z" fill="#fff"/><path d="M388.66 184.74c-2.983 0-5.996-.191-9.024-.573-15.314-1.926-29.1-8.539-38.83-18.622-4.732-4.908-8.26-10.376-10.464-16.255-2.278-6.084-3.043-12.345-2.249-18.606.794-6.261 3.072-12.14 6.79-17.475 3.586-5.145 8.348-9.583 14.154-13.169 11.934-7.364 26.925-10.362 42.239-8.436 15.315 1.925 29.101 8.539 38.831 18.621 4.747 4.909 8.259 10.376 10.464 16.255 2.278 6.085 3.042 12.346 2.249 18.607-.794 6.261-3.072 12.14-6.79 17.475-3.587 5.144-8.349 9.582-14.154 13.169-9.568 5.908-21.12 9.009-33.216 9.009Zm-6.334-92.96c-27.499 0-50.662 16.27-53.513 38.992-3.16 25.117 19.68 48.75 50.911 52.675 31.232 3.924 59.216-13.316 62.376-38.434 1.528-12.154-2.911-24.324-12.508-34.274-9.612-9.964-23.251-16.505-38.404-18.415a72.786 72.786 0 0 0-8.862-.544Z" fill="#000"/><path d="M347.018 133.936c1.585-12.603-2.77-23.53-9.729-24.406-6.958-.875-13.884 8.633-15.469 21.237-1.586 12.604 2.77 23.531 9.728 24.406 6.959.875 13.885-8.633 15.47-21.237Z" fill="#B3B8C6"/><path d="M332.44 155.522c-.309 0-.632-.015-.941-.059-3.483-.441-6.422-3.278-8.304-7.981-1.851-4.659-2.454-10.596-1.675-16.74.779-6.143 2.822-11.758 5.776-15.799 2.983-4.101 6.555-6.114 10.023-5.688 3.484.441 6.423 3.277 8.304 7.98 1.852 4.659 2.455 10.597 1.676 16.741-.779 6.143-2.822 11.757-5.776 15.799-2.719 3.748-5.908 5.747-9.083 5.747Zm3.939-45.738c-2.984 0-6.011 1.925-8.613 5.497-2.895 3.968-4.909 9.479-5.673 15.535-.764 6.04-.176 11.89 1.646 16.446 1.793 4.512 4.586 7.216 7.834 7.628 3.248.411 6.614-1.529 9.48-5.438 2.895-3.968 4.908-9.48 5.673-15.535.764-6.041.176-11.89-1.646-16.446-1.793-4.512-4.586-7.217-7.834-7.628a5.877 5.877 0 0 0-.867-.059Z" fill="#000"/><path d="M341.181 133.209c1.585-12.604-1.464-23.366-6.812-24.039-5.348-.673-10.968 8.999-12.553 21.603-1.586 12.604 1.464 23.367 6.812 24.04 5.348.672 10.968-9 12.553-21.604Z" fill="#D0D4DD"/><path d="M329.153 155.139c-.191 0-.382-.014-.573-.029-2.704-.338-4.938-3.101-6.246-7.76-1.294-4.571-1.588-10.479-.823-16.608.764-6.129 2.513-11.773 4.908-15.888 2.44-4.189 5.262-6.305 7.981-5.967 2.704.338 4.938 3.101 6.246 7.76 1.294 4.571 1.588 10.479.823 16.608-.764 6.129-2.513 11.773-4.909 15.888-2.263 3.88-4.864 5.996-7.407 5.996Zm4.674-45.708c-2.322 0-4.747 1.999-6.908 5.702-2.351 4.042-4.071 9.612-4.821 15.668-.764 6.055-.485 11.875.794 16.372 1.249 4.424 3.292 7.026 5.761 7.334 2.455.309 5.086-1.705 7.393-5.673 2.352-4.042 4.071-9.612 4.821-15.667.764-6.055.485-11.875-.794-16.373-1.249-4.424-3.292-7.025-5.761-7.334a5.292 5.292 0 0 0-.485-.029Zm85.978 42.064a13.54 13.54 0 0 1-3.233-.397l-.926-.235.896-.324c5.864-2.16 10.479-8.818 8.025-16.255-2.131-6.29-6.864-12.184-13.301-16.578-6.878-4.659-15.124-7.246-23.854-7.466l-.029-.588c5.555-.735 11.111-.515 16.534.676 5.57 1.22 10.7 3.409 15.241 6.481 6.555 4.468 11.346 10.465 13.522 16.887 1.543 4.689.426 9.7-2.984 13.39-2.66 2.865-6.202 4.409-9.891 4.409Zm-2.161-.779c4.277.735 8.554-.735 11.611-4.042 3.278-3.527 4.336-8.319 2.866-12.801-2.131-6.291-6.863-12.184-13.301-16.579-7.848-5.32-17.754-7.936-27.66-7.407 7.451.779 14.462 3.277 20.444 7.334 6.555 4.468 11.346 10.464 13.521 16.887 1.147 3.468.838 7.143-.852 10.376-1.455 2.734-3.836 4.968-6.629 6.232Z" fill="#000"/><path d="m383.651 110.592-17.225 32.849a13.097 13.097 0 0 0 4.629 1.175c1.823.118 5.865.471 7.643.471 1.029.014 2.072.029 3.116.059l18.445-35.171a47.439 47.439 0 0 0-16.608.617Zm20.826.162-18.107 34.539c2.895.132 5.791.323 8.48.676.309.044.603.073.911.117l17.035-32.51a45.1 45.1 0 0 0-8.319-2.822Z" fill="#fff" opacity=".4"/><path d="M419.802 151.495c-1.19 0-2.395-.162-3.6-.5-.059-.015-.133-.029-.206-.044l-4.527-1.205c-5.35-1.587-10.655-2.69-16.681-3.483-5.012-.647-10.715-.794-16.123-.882h-.044c-1.323 0-3.836-.191-5.835-.338a84.48 84.48 0 0 0-1.778-.133c-5.027-.338-9.274-3.336-11.347-8.039-2.043-4.63-1.381-9.906 1.705-13.771 4.057-5.012 10.038-8.966 17.299-11.449 6.614-2.22 13.815-2.94 20.811-2.073 7.143.867 13.933 3.381 19.636 7.231 6.555 4.468 11.346 10.465 13.521 16.887 1.573 4.777.412 9.833-3.116 13.537-2.616 2.777-6.099 4.262-9.715 4.262Zm-3.659-1.117.22.059c4.615 1.278 9.392-.074 12.757-3.631 3.381-3.542 4.483-8.377 2.984-12.933-2.131-6.291-6.864-12.184-13.301-16.579-11.243-7.613-26.558-9.568-39.932-5.085-7.143 2.44-13.022 6.335-17.02 11.258-2.998 3.748-3.615 8.672-1.631 13.169 1.984 4.497 6.04 7.378 10.846 7.687.471.029 1.088.073 1.779.132 1.999.147 4.497.338 5.805.338h.044c5.438.088 11.155.235 16.197.882 6.07.793 11.39 1.91 16.769 3.498-.015 0 3.557.955 4.483 1.205Z" fill="#000"/><path d="M411.444 139.097c4.42-4.42 4.42-11.585 0-16.005-4.42-4.419-11.585-4.419-16.004 0-4.42 4.42-4.42 11.585 0 16.005 4.419 4.419 11.585 4.419 16.004 0Z" fill="#fff"/><path d="M403.461 142.706c-.161 0-.323 0-.485-.015a11.57 11.57 0 0 1-8.068-3.733 11.508 11.508 0 0 1-3.057-8.348 11.575 11.575 0 0 1 3.733-8.069 11.516 11.516 0 0 1 8.348-3.057c6.393.265 11.39 5.688 11.126 12.082a11.572 11.572 0 0 1-3.734 8.068 11.553 11.553 0 0 1-7.863 3.072Zm-.029-22.634a11.003 11.003 0 0 0-7.466 2.91 10.968 10.968 0 0 0-3.542 7.658 10.946 10.946 0 0 0 2.91 7.921 10.967 10.967 0 0 0 7.657 3.542c2.94.118 5.761-.911 7.922-2.91a10.972 10.972 0 0 0 3.542-7.657c.25-6.07-4.483-11.214-10.567-11.464h-.456Z" fill="#000"/><path d="M409.56 126.069c-.103 2.557-3.601 4.541-8.143 4.835 4.498.676 7.819 2.984 7.716 5.585-.117 2.954-4.629 5.188-10.052 4.953-.074 0-.147 0-.221-.015-4.115-1.822-6.922-6.04-6.717-10.817.191-4.776 3.322-8.745 7.584-10.229.074 0 .147 0 .221.015 5.423.235 9.729 2.777 9.612 5.673Z" fill="#000"/><path d="M398.918 126.642a1.27 1.27 0 0 0 1.22 1.323 1.268 1.268 0 0 0 1.323-1.22 1.268 1.268 0 0 0-1.22-1.323 1.269 1.269 0 0 0-1.323 1.22Zm-3.6 4.115a1.268 1.268 0 0 0 1.219 1.323 1.268 1.268 0 0 0 1.323-1.22 1.268 1.268 0 0 0-1.22-1.323 1.268 1.268 0 0 0-1.322 1.22Zm3.042 4.718a1.268 1.268 0 0 0 1.22 1.323 1.268 1.268 0 0 0 1.322-1.22 1.267 1.267 0 0 0-1.219-1.323c-.691-.044-1.294.514-1.323 1.22Zm-5.729-1.969c1.823-5.978-1.544-12.302-7.522-14.126-5.978-1.824-12.303 1.544-14.127 7.522-1.824 5.978 1.544 12.303 7.522 14.126 5.978 1.824 12.303-1.544 14.127-7.522Z" fill="#fff"/><path d="M381.813 141.824c-.162 0-.323 0-.485-.014a11.58 11.58 0 0 1-8.069-3.734 11.51 11.51 0 0 1-3.057-8.348 11.57 11.57 0 0 1 3.733-8.068 11.508 11.508 0 0 1 8.348-3.057c6.394.264 11.391 5.687 11.126 12.081a11.57 11.57 0 0 1-3.733 8.068 11.565 11.565 0 0 1-7.863 3.072Zm-.015-22.648a11.006 11.006 0 0 0-7.466 2.91 10.976 10.976 0 0 0-3.542 7.657 10.952 10.952 0 0 0 2.91 7.922 10.976 10.976 0 0 0 7.657 3.542c2.94.118 5.762-.911 7.922-2.91a10.967 10.967 0 0 0 3.542-7.657c.25-6.07-4.482-11.214-10.567-11.464h-.456Z" fill="#000"/><path d="M387.911 125.187c-.103 2.557-3.601 4.541-8.142 4.835 4.497.676 7.819 2.984 7.716 5.585-.118 2.954-4.63 5.188-10.053 4.953-.073 0-.147 0-.22-.015-4.116-1.822-6.923-6.04-6.717-10.817.191-4.776 3.322-8.745 7.584-10.229.073 0 .147 0 .22.015 5.423.235 9.73 2.763 9.612 5.673Z" fill="#000"/><path d="M377.274 125.745a1.267 1.267 0 0 0 1.22 1.323 1.267 1.267 0 0 0 1.322-1.22 1.267 1.267 0 0 0-1.219-1.322 1.276 1.276 0 0 0-1.323 1.219Zm-3.601 4.13a1.268 1.268 0 0 0 1.22 1.323 1.269 1.269 0 0 0 1.323-1.22 1.27 1.27 0 0 0-1.22-1.323 1.278 1.278 0 0 0-1.323 1.22Zm3.057 4.703a1.268 1.268 0 0 0 1.22 1.323 1.268 1.268 0 0 0 1.323-1.22 1.268 1.268 0 0 0-1.22-1.322 1.267 1.267 0 0 0-1.323 1.219Z" fill="#fff"/><path d="M391.642 153.832a5.927 5.927 0 0 1-4.336-1.852 5.855 5.855 0 0 1-1.484-2.749.368.368 0 1 1 .72-.161c.22.896.661 1.734 1.308 2.41 1.176 1.235 2.837 1.808 4.571 1.573 1.734-.235 3.189-1.235 3.983-2.749a.363.363 0 0 1 .499-.147c.177.088.25.324.147.5-.896 1.69-2.586 2.866-4.526 3.131-.309.014-.588.044-.882.044Z" fill="#000"/><path d="M394.215 75.687a7.114 7.114 0 1 0-.075-14.229 7.114 7.114 0 0 0 .075 14.23Z" fill="#fff"/><path d="M396.542 61.856a7.065 7.065 0 0 1 .69 4.072c-.485 3.894-4.056 6.672-7.951 6.172a7.052 7.052 0 0 1-1.484-.352 7.1 7.1 0 0 0 5.482 3.88c3.895.485 7.466-2.278 7.951-6.173.441-3.38-1.587-6.511-4.688-7.599Z" fill="#6556FF"/><path d="M394.188 75.98a7.43 7.43 0 0 1-7.378-8.333 7.352 7.352 0 0 1 2.807-4.923 7.324 7.324 0 0 1 5.468-1.5 7.352 7.352 0 0 1 4.923 2.808 7.386 7.386 0 0 1 1.499 5.467 7.348 7.348 0 0 1-2.807 4.924 7.187 7.187 0 0 1-4.512 1.558Zm-.029-14.241a6.75 6.75 0 0 0-4.174 1.44 6.812 6.812 0 0 0-2.587 4.542c-.47 3.733 2.19 7.157 5.923 7.628.294.029.573.058.853.058 3.38 0 6.334-2.528 6.76-5.967a6.824 6.824 0 0 0-5.923-7.628 5.398 5.398 0 0 0-.852-.073Z" fill="#000"/><path d="M403.946 83.256c-.132 1.102-5.379 1.337-11.684.543-6.32-.793-11.332-2.322-11.185-3.424.133-1.102 5.38-1.337 11.685-.544 6.319.794 11.331 2.337 11.184 3.425Z" fill="url(#b)" opacity=".5"/><path d="M399.141 84.564c-2.352 0-5.041-.235-6.923-.47-3.071-.383-5.937-.956-8.068-1.617-3.513-1.073-3.41-1.881-3.381-2.146.221-1.808 7.966-1.308 12.023-.808 3.071.382 5.937.955 8.068 1.616 3.513 1.073 3.41 1.882 3.381 2.146-.118.97-2.381 1.279-5.1 1.279Zm-13.125-4.909c-.5 0-.97.015-1.411.03-2.601.117-3.233.558-3.248.72-.015.161.47.75 2.969 1.513 2.102.647 4.923 1.206 7.966 1.588 3.042.382 5.923.529 8.113.44 2.601-.117 3.233-.558 3.248-.72.014-.161-.471-.75-2.969-1.513-2.102-.647-4.924-1.206-7.966-1.588-2.425-.308-4.747-.47-6.702-.47Z" fill="#000"/><path d="m393.011 75.592-2.054 16.332.583.074 2.055-16.333-.584-.073Z" fill="#000"/><path d="M381.298 233.961c-2.866 3.865-8.686 5.878-13.022 4.512-4.335-1.367-5.526-5.6-2.66-9.465 2.866-3.866 8.686-5.879 13.022-4.513 4.336 1.367 5.511 5.615 2.66 9.466Z" fill="url(#c)"/><path d="M380.842 225.627c-.132 1.161-.632 2.396-1.513 3.586-2.866 3.865-8.687 5.879-13.022 4.512-.867-.279-1.602-.661-2.205-1.132-.308 2.617 1.191 4.939 4.174 5.879 4.336 1.367 10.156-.646 13.022-4.512 2.293-3.086 1.984-6.422-.456-8.333Z" fill="#6556FF"/><path d="M371.173 239.193a9.97 9.97 0 0 1-2.984-.441c-2.102-.661-3.586-2.014-4.159-3.807-.618-1.925-.147-4.1 1.352-6.114 2.925-3.939 8.906-6.011 13.345-4.615 2.102.662 3.586 2.014 4.159 3.807.618 1.925.147 4.1-1.352 6.114-2.307 3.101-6.511 5.056-10.361 5.056Zm4.541-14.83c-3.66 0-7.657 1.852-9.862 4.821-1.381 1.867-1.822 3.851-1.264 5.585.515 1.602 1.867 2.822 3.777 3.424.897.28 1.852.412 2.837.412 3.66 0 7.657-1.852 9.862-4.821 1.381-1.866 1.822-3.85 1.264-5.585-.515-1.602-1.867-2.822-3.777-3.424a9.54 9.54 0 0 0-2.837-.412Z" fill="#000"/><path d="M371.172 239.193a9.97 9.97 0 0 1-2.984-.441c-3.042-.955-4.717-3.336-4.379-6.188a.29.29 0 0 1 .176-.235.272.272 0 0 1 .294.044c.588.471 1.308.823 2.116 1.088a9.54 9.54 0 0 0 2.837.411c3.659 0 7.657-1.851 9.862-4.82.823-1.103 1.322-2.293 1.455-3.454a.29.29 0 0 1 .176-.235.27.27 0 0 1 .294.044c2.646 2.072 2.851 5.585.514 8.73-2.307 3.101-6.51 5.056-10.361 5.056Zm-6.82-6.055c-.058 2.336 1.441 4.247 4.013 5.055 4.218 1.338 9.906-.646 12.698-4.409 2.014-2.719 1.984-5.702-.015-7.584-.22 1.073-.734 2.176-1.484 3.204-2.925 3.939-8.907 6.012-13.345 4.615-.691-.235-1.308-.514-1.867-.881Zm-27.544-48.207c-2.219-1.323-4.953-1.485-7.936-.662-1.367 4.571-2.558 9.568-3.822 15.359-3.174 14.447-3.674 13.551-2.454 28.16.132 1.573.426 3.204.882 4.835 3.806-3.351 7.54-7.833 10.699-13.124 8.804-14.712 9.965-30.174 2.631-34.568Z" fill="#000"/><path d="m323.287 233.285-.162-.559a25.813 25.813 0 0 1-.896-4.908c-1.059-12.714-.838-13.713 1.337-23.237.323-1.455.706-3.101 1.132-5.026 1.484-6.746 2.631-11.347 3.836-15.388l.059-.191.191-.059c3.16-.867 5.996-.632 8.215.705 3.675 2.19 5.424 7.084 4.909 13.757-.499 6.584-3.13 14.153-7.407 21.311-3.087 5.159-6.805 9.73-10.773 13.213l-.441.382Zm5.893-48.707c-1.175 3.969-2.307 8.525-3.762 15.138a511.584 511.584 0 0 1-1.132 5.042c-2.146 9.435-2.366 10.42-1.322 23.015.117 1.367.352 2.778.72 4.204 3.748-3.395 7.26-7.746 10.185-12.654 8.671-14.507 9.891-29.792 2.748-34.069-2.028-1.22-4.526-1.44-7.437-.676Z" fill="#000"/><path d="M329.22 210.146c8.126-13.602 10.262-27.288 4.771-30.568-5.49-3.281-16.529 5.086-24.656 18.688-8.126 13.602-10.263 27.288-4.772 30.568 5.491 3.281 16.53-5.086 24.657-18.688Z" fill="#fff"/><path d="M307.313 229.861c-1.088 0-2.058-.25-2.91-.75-2.763-1.646-3.777-5.82-2.866-11.714.911-5.805 3.586-12.654 7.525-19.268 3.953-6.613 8.701-12.213 13.389-15.755 4.762-3.601 8.906-4.689 11.67-3.028 2.763 1.646 3.777 5.82 2.866 11.714-.912 5.805-3.587 12.654-7.525 19.268-3.954 6.614-8.701 12.213-13.39 15.755-3.292 2.499-6.305 3.778-8.759 3.778Zm23.912-50.706c-2.322 0-5.203 1.249-8.392 3.674-4.63 3.513-9.333 9.054-13.242 15.594-3.91 6.555-6.555 13.316-7.452 19.048-.881 5.644.03 9.597 2.587 11.126 2.543 1.528 6.467.455 11.023-2.999 4.63-3.512 9.333-9.053 13.242-15.593 3.91-6.541 6.555-13.316 7.452-19.048.882-5.644-.03-9.597-2.587-11.126-.764-.455-1.646-.676-2.631-.676Z" fill="#000"/><path d="M412.174 244.837a8.299 8.299 0 0 0-5.202-5.188c-.353-.118-.353-.632 0-.75a8.332 8.332 0 0 0 5.246-5.144c.133-.367.632-.367.75 0a8.298 8.298 0 0 0 5.203 5.188c.353.118.353.632 0 .75a8.331 8.331 0 0 0-5.247 5.144.393.393 0 0 1-.75 0Z" fill="#fff"/><path d="M412.541 245.483a.74.74 0 0 1-.72-.529 7.95 7.95 0 0 0-4.982-4.953c-.324-.102-.515-.396-.515-.734 0-.338.206-.618.529-.721a8.003 8.003 0 0 0 5.027-4.923.76.76 0 0 1 .72-.515c.338 0 .617.206.72.529a7.946 7.946 0 0 0 4.982 4.953c.324.103.515.397.515.735a.74.74 0 0 1-.529.72 8.007 8.007 0 0 0-5.027 4.924.745.745 0 0 1-.72.514Zm.044-11.64c-.014 0-.029.015-.029.03a8.744 8.744 0 0 1-5.482 5.379c-.015 0-.015 0-.015.029 0 .03.015.03.015.03a8.706 8.706 0 0 1 5.438 5.423.03.03 0 0 0 .029.029c.015 0 .03-.014.03-.029a8.737 8.737 0 0 1 5.482-5.379c.014 0 .014 0 .014-.03 0-.029-.014-.029-.014-.029a8.709 8.709 0 0 1-5.438-5.423c0-.015 0-.03-.03-.03Z" fill="#000"/><path d="M357.22 104.125a9.127 9.127 0 0 0-5.688-5.673.433.433 0 0 1 0-.823A9.15 9.15 0 0 0 357.279 92a.433.433 0 0 1 .823 0 9.125 9.125 0 0 0 5.687 5.673.433.433 0 0 1 0 .823 9.149 9.149 0 0 0-5.746 5.629.433.433 0 0 1-.823 0Z" fill="#fff"/><path d="M357.631 104.801a.807.807 0 0 1-.764-.543 8.742 8.742 0 0 0-5.468-5.438.79.79 0 0 1-.544-.764.81.81 0 0 1 .544-.765 8.775 8.775 0 0 0 5.512-5.394.807.807 0 0 1 1.528 0 8.74 8.74 0 0 0 5.468 5.438.789.789 0 0 1 .543.765c0 .352-.22.646-.543.764a8.775 8.775 0 0 0-5.512 5.394.807.807 0 0 1-.764.543Zm-.059-.793c0 .015.015.044.059.044s.059-.029.059-.044a9.479 9.479 0 0 1 5.967-5.85c.014 0 .044-.014.044-.058 0-.044-.03-.06-.044-.06a9.466 9.466 0 0 1-5.923-5.908c0-.014-.015-.044-.059-.044s-.059.03-.059.044a9.478 9.478 0 0 1-5.967 5.85c-.015 0-.044.015-.044.059s.029.059.044.059a9.57 9.57 0 0 1 5.923 5.908Z" fill="#000"/><path d="M435.087 180.184a6.288 6.288 0 0 0-3.836-3.998c-.264-.103-.264-.485.015-.573a6.219 6.219 0 0 0 4.042-3.792c.103-.264.485-.264.573.015a6.284 6.284 0 0 0 3.836 3.997c.264.103.264.485-.015.574a6.223 6.223 0 0 0-4.042 3.792c-.117.279-.499.264-.573-.015Z" fill="#fff"/><path d="M435.367 180.772h-.015a.661.661 0 0 1-.617-.471 5.9 5.9 0 0 0-3.616-3.762.668.668 0 0 1-.441-.647c.015-.294.191-.544.471-.617a5.907 5.907 0 0 0 3.806-3.571.666.666 0 0 1 1.264.029 5.9 5.9 0 0 0 3.616 3.762c.279.103.44.353.44.647-.014.294-.191.544-.47.617a5.906 5.906 0 0 0-3.806 3.572.684.684 0 0 1-.632.441Zm-3.822-4.865a6.591 6.591 0 0 1 3.822 3.998 6.666 6.666 0 0 1 4.027-3.792c-1.779-.706-3.204-2.175-3.822-3.998a6.59 6.59 0 0 1-4.027 3.792Zm-72.266 89.903a.52.52 0 0 1-.632.338.52.52 0 0 1-.338-.632.52.52 0 0 1 .632-.338c.265.073.412.367.338.632Zm-5.467 24.03a.521.521 0 0 1-.632.338c-.265-.073-.412-.367-.338-.632a.52.52 0 0 1 .632-.338.491.491 0 0 1 .338.632Zm30.144-28.733a.522.522 0 0 1-.632.338.52.52 0 0 1-.338-.632.52.52 0 0 1 .632-.338c.264.073.411.367.338.632Zm60.655-83.333a.521.521 0 0 1-.632.338c-.264-.074-.411-.368-.338-.632a.52.52 0 0 1 .632-.338.497.497 0 0 1 .338.632Zm13.11-7.805a.52.52 0 0 1-.632.338c-.264-.073-.411-.367-.338-.632a.522.522 0 0 1 .632-.338.492.492 0 0 1 .338.632Zm-140.814-49.206a.522.522 0 0 1-.632.338.52.52 0 0 1-.338-.632.52.52 0 0 1 .632-.338c.264.073.411.367.338.632Zm90.329-40.52a.52.52 0 0 1-.632.338c-.264-.074-.411-.368-.338-.632a.52.52 0 0 1 .632-.338.486.486 0 0 1 .338.632Zm10.024 7.392a.521.521 0 0 1-.632.338c-.265-.073-.412-.367-.338-.632.073-.264.367-.411.632-.338a.521.521 0 0 1 .338.632Zm-14.505 159.333a1.338 1.338 0 1 0 0-2.676 1.338 1.338 0 0 0 0 2.676Z" fill="#000"/><path d="M339.849 267.926H121.418V143.617h218.431s.073 124.309 0 124.309Zm0-131.731H120.536a6.536 6.536 0 0 0-6.54 6.54v135.479a6.536 6.536 0 0 0 6.54 6.541h220.327a6.536 6.536 0 0 0 6.54-6.541V143.749c.015-4.174-3.38-7.554-7.554-7.554Z" fill="#393939"/><path d="M339.848 267.926H121.565a.146.146 0 0 1-.147-.146V143.75c0-.074.059-.147.147-.147h218.283c0 .014.074 124.323 0 124.323Z" fill="#fff"/><path d="M339.849 268.22H121.566a.442.442 0 0 1-.441-.441v-124.03c0-.235.191-.441.441-.441h218.577v.294l.03 62.155v42.725c0 5.82 0 10.684-.015 14.079 0 1.705 0 3.043-.015 3.939v1.044c0 .455 0 .676-.294.676Zm-218.136-.588h217.842c.059-6.246 0-117.166 0-123.721H121.713v123.721Z" fill="#000"/><path d="M170.185 143.617h-48.619v124.324h48.619V143.617Z" fill="#B3B8C6"/><path d="M311.262 241.471H186.82v13.904h124.442v-13.904Z" fill="#DFE4ED"/><path d="m289.568 247.805 1.984 3.057c.294.456.941.5 1.294.089l2.822-3.278c.455-.529.059-1.367-.647-1.337l-4.806.22c-.632.044-.985.735-.647 1.249Z" fill="#fff"/><path d="M339.878 171.615H170.184v34.157h169.694v-34.157Zm-25.868-16.843h-65.74v5.585h65.74v-5.585Z" fill="#DFE4ED"/><path d="M314.01 179.949h-65.74v5.585h65.74v-5.585Zm0 11.919h-65.74v5.585h65.74v-5.585Z" fill="#B3B8C6"/><path d="M339.849 268.22H121.566a.442.442 0 0 1-.441-.441v-124.03c0-.235.191-.441.441-.441h218.577v.294l.03 62.155v42.725c0 5.82 0 10.684-.015 14.079 0 1.705 0 3.043-.015 3.939v1.044c0 .455 0 .676-.294.676Zm-218.136-.588h217.842c.059-6.246 0-117.166 0-123.721H121.713v123.721Z" fill="#000"/><path d="M341.421 285.063H119.978a6.297 6.297 0 0 1-6.29-6.29V142.177a6.297 6.297 0 0 1 6.29-6.291h221.443a6.298 6.298 0 0 1 6.291 6.291v136.596a6.298 6.298 0 0 1-6.291 6.29ZM119.978 136.489a5.708 5.708 0 0 0-5.703 5.702v136.596a5.708 5.708 0 0 0 5.703 5.703h221.443a5.708 5.708 0 0 0 5.703-5.703v-136.61a5.708 5.708 0 0 0-5.703-5.703H119.978v.015Z" fill="#000"/><path d="M365.435 349.261H90.729a1.885 1.885 0 0 1-1.881-1.881v-12.905c0-1.028.837-1.881 1.88-1.881h274.707c1.029 0 1.881.838 1.881 1.881v12.905a1.876 1.876 0 0 1-1.881 1.881Z" fill="#D0D4DD"/><path d="M365.436 349.555H90.73a2.18 2.18 0 0 1-2.175-2.175v-12.905c0-1.19.97-2.175 2.175-2.175h274.706c1.19 0 2.175.97 2.175 2.175v12.905a2.17 2.17 0 0 1-2.175 2.175ZM90.73 332.903a1.59 1.59 0 0 0-1.587 1.587v12.904a1.59 1.59 0 0 0 1.587 1.588h274.706a1.59 1.59 0 0 0 1.587-1.588V334.49a1.59 1.59 0 0 0-1.587-1.587H90.73Z" fill="#000"/><path d="M318.05 332.609c.162-.838.25-1.705.25-2.587 0-7.393-5.982-13.375-13.375-13.375-7.392 0-13.374 5.982-13.374 13.375 0 .882.088 1.749.25 2.587h26.249Z" fill="#fff"/><path d="M318.054 332.903h-26.249a.3.3 0 0 1-.294-.236 13.295 13.295 0 0 1-.265-2.645c0-7.54 6.129-13.668 13.669-13.668 7.539 0 13.668 6.128 13.668 13.668 0 .882-.088 1.778-.265 2.645 0 .133-.117.236-.264.236Zm-26-.588h25.75c.132-.765.206-1.529.206-2.293 0-7.216-5.864-13.081-13.081-13.081-7.216 0-13.08 5.865-13.08 13.081 0 .764.073 1.528.205 2.293Z" fill="#000"/><path d="M232.925 179.052h7.363c1 0 1.808.809 1.808 1.808v7.363c0 1-.808 1.808-1.808 1.808h-7.363a1.807 1.807 0 0 1-1.808-1.808v-7.363c0-.999.809-1.808 1.808-1.808Z" fill="#B3B8C6"/><path d="M232.925 152.083h7.363c1 0 1.808.808 1.808 1.807v7.349c0 .999-.808 1.808-1.808 1.808h-7.363a1.807 1.807 0 0 1-1.808-1.808v-7.349c0-.999.809-1.807 1.808-1.807Z" fill="#DFE4ED"/><path d="M204.426 166.78c-13.36-16.902-21.767 4.836-48.428-1.44-6.084 4.835-12.375 14.168-10.361 26.264 1.646 9.876 4.203 13.521 6.511 14.447 7.304 2.969 10.082 3.307 11.067 6.158a47.2 47.2 0 0 0 1.381 3.469c.647 7.878 1.867 24.5 1.411 32.481-.397 6.981-17.269 35.641-2.645 36.199 14.624.559 38.242-17.019 37.683-31.922-.264-6.908-.676-12.787-1.234-17.784 2.513-.544 4.409-1.396 5.35-2.337 4.644-4.644 7.554-12.301 7.554-21.296.015-9.01 1.911-31.335-8.289-44.239Z" fill="#fff"/><mask id="d" width="68" height="125" x="145" y="160" maskUnits="userSpaceOnUse" style="mask-type:luminance"><path d="M204.426 166.78c-13.36-16.902-21.767 4.836-48.428-1.44-6.084 4.835-12.375 14.168-10.361 26.264 1.646 9.876 4.203 13.521 6.511 14.447 7.304 2.969 10.082 3.307 11.067 6.158a47.2 47.2 0 0 0 1.381 3.469c.647 7.878 1.867 24.5 1.411 32.481-.397 6.981-17.269 35.641-2.645 36.199 14.624.559 38.242-17.019 37.683-31.922-.264-6.908-.676-12.787-1.234-17.784 2.513-.544 4.409-1.396 5.35-2.337 4.644-4.644 7.554-12.301 7.554-21.296.015-9.01 1.911-31.335-8.289-44.239Z" fill="#fff"/></mask><g mask="url(#d)"><path d="M169.505 217c-1.617.368-3.219.353-4.777.074.661 8.304 1.719 23.545 1.293 31.085-.103 1.851-1.367 5.217-2.88 9.171 1.719.793 3.439 1.587 5.232 2.219 1.572.558.779.088 2.351.22.618-14.315-.705-34.744-1.425-44.224-.676.294.94 1.279.206 1.455Z" fill="#EAEAEA"/></g><path d="M191.566 222.792s3.644 9.729 8.259 11.845c.368 3.675.574 6.085.574 6.085s-9.877-5.379-8.833-17.93Z" fill="#000"/><path d="M207.676 209.079a8.607 8.607 0 0 0 4.659 7.643c.264-1.823.411-3.748.411-5.718 0-2.439.147-5.879.133-9.832a8.597 8.597 0 0 0-5.203 7.907Z" fill="#EAEAEA"/><path d="M164.054 284.667c-.235 0-.455 0-.691-.015-2.366-.088-4.085-.911-5.099-2.454-3.16-4.806.97-15.535 4.291-24.163 1.646-4.277 3.072-7.966 3.175-9.891.455-8.069-.823-25.309-1.396-32.393a48.133 48.133 0 0 1-1.382-3.453c-.735-2.073-2.469-2.734-6.643-4.321-1.235-.471-2.616-1-4.262-1.661-3.013-1.22-5.262-6.158-6.688-14.683-.926-5.57-.205-10.964 2.161-16.02 1.881-4.027 4.835-7.76 8.304-10.508.94-.75 2.028-1.485 3.219-2.205a.268.268 0 0 1 .235-.029 5.641 5.641 0 0 0 1.94.235h.279c2.351.147 4.674.705 6.922 1.249l.5.118c2.793.676 5.82 1.293 9.039 1.234 2.866-.059 5.658-1.205 7.76-2.204 2.469-1.176 5.056-2.587 8.113-4.468.073-.044.132-.088.206-.118.058-.029.117-.073.176-.103.088-.044.176-.059.265-.014 3.997 1.704 7.422 4.321 10.17 7.804 3.924 4.953 6.511 11.934 7.687 20.723.999 7.407.837 14.653.735 19.929-.03 1.441-.059 2.675-.059 3.748 0 8.818-2.778 16.652-7.643 21.517-.985.985-2.836 1.822-5.232 2.366.544 5.071.955 10.979 1.205 17.534.221 5.703-3.042 12.213-9.186 18.357-8.259 8.26-19.694 13.889-28.101 13.889Zm-4.806-121.194a29.288 29.288 0 0 0-3.057 2.087c-3.027 2.396-12.683 11.361-10.258 25.985 1.719 10.332 4.394 13.448 6.319 14.227 1.632.661 3.028 1.19 4.248 1.661 4.233 1.602 6.173 2.337 6.996 4.673a44.534 44.534 0 0 0 1.381 3.454c.015.03.03.059.03.103.72 8.789 1.852 24.692 1.411 32.525-.118 2.014-1.544 5.747-3.219 10.068-3.278 8.495-7.349 19.077-4.35 23.618.925 1.396 2.439 2.117 4.629 2.205 8.304.323 19.974-5.321 28.351-13.698 6.026-6.026 9.23-12.39 9.024-17.916-.25-6.658-.661-12.64-1.22-17.754a.306.306 0 0 1 .236-.324c2.38-.514 4.276-1.337 5.202-2.263 4.748-4.747 7.467-12.434 7.467-21.09 0-1.073.029-2.323.058-3.763.221-10.141.618-28.998-8.289-40.27-2.645-3.351-5.952-5.894-9.803-7.569-.015.014-.029.014-.044.029-.074.044-.132.088-.206.132-3.086 1.881-5.688 3.307-8.171 4.498-2.161 1.028-5.027 2.204-8.01 2.263-3.278.059-6.364-.559-9.186-1.249l-.5-.118c-2.219-.544-4.512-1.102-6.805-1.234h-.235a8.085 8.085 0 0 1-1.999-.28Z" fill="#000"/><path d="M108.484 329.375s-2.939 6.908.588 15.286c3.527 8.377 15.432 5.144 18.813-.588 3.38-5.732-19.401-14.698-19.401-14.698Z" fill="#fff"/><path d="M117.024 350.04c-.25 0-.5-.015-.75-.03-3.498-.235-6.158-2.101-7.481-5.247-3.542-8.392-.617-15.446-.588-15.52l.118-.264.265.102c.72.28 17.798 7.07 19.738 12.699.294.867.235 1.69-.206 2.425-1.969 3.38-6.731 5.835-11.096 5.835Zm-8.378-20.283c-.485 1.353-2.366 7.54.691 14.786 1.587 3.762 4.674 4.732 6.981 4.894.235.015.485.029.72.029 4.16 0 8.701-2.336 10.597-5.54.353-.588.397-1.22.147-1.926-1.734-5.012-16.887-11.331-19.136-12.243Z" fill="#000"/><path d="M285.145 318.794c.499.499 11.14 3.042 15.579-1.176 4.556-4.321 4.865-8.877 8.774-11.905 4.365-3.38-.441-7.202-2.543-5.188 2.308-2.058-1.866-5.247-3.924-3.189 1.47-1.808-2.101-4.557-4.512-2.308.838-1.073-2.645-3.233-4.806-.882 1.47-1.367-2.645-3.13-5.247-.338-2.601 2.793-3.718 4.409-6.569 12.537-1.588 4.556-8.76 11.42 3.248 12.449Z" fill="#fff"/><path d="M279.559 308.799s5.1-8.627 8.921-7.451c15.726 4.835 13.33 8.921 8.921 20.385-7.187 18.665-20.003 10.582-17.842-12.934Z" fill="#fff"/><path d="M210.774 274.408c-6.07-9.994 4.086-21.002 10.876-16.167 11.361 8.099 49.044 35.906 60.023 47.502 0 0 23.266 18.974 7.584 26.087-4.644 2.102-21.164-3.233-36.846-16.754-15.682-13.522-34.803-29.424-41.637-40.668Z" fill="#fff"/><path d="M286.703 332.521c-2.998 0-7.349-1.102-12.228-3.145-7.437-3.116-15.329-8.113-22.252-14.08a645.766 645.766 0 0 0-4.365-3.748c-14.579-12.522-31.099-26.72-37.345-36.978-3.631-5.967-1.573-12.14 1.881-15.344 2.925-2.719 6.628-3.204 9.421-1.205 10.876 7.76 47.237 33.965 58.348 45.693.499.529.999 1.058 1.484 1.588.191-.236.368-.456.559-.677 2.425-6.731 3.586-8.362 6.04-11.008 1.441-1.558 3.278-1.763 4.527-1.455.808.206 1.367.632 1.499 1.147 1.455-.897 3.175-.441 4.042.294.294.249.485.514.573.793 1.382-.852 3.013-.485 3.983.412.573.529.838 1.176.779 1.778.558-.235 1.22-.264 1.896-.059 1.146.324 2.102 1.235 2.322 2.205.073.353.059.691-.044 1.014.456-.103.955-.073 1.47.103 1.161.382 2.028 1.352 2.219 2.484.22 1.264-.441 2.557-1.852 3.645-1.925 1.484-2.969 3.395-4.086 5.423-1.102 2.013-2.366 4.291-4.659 6.467-.617.588-1.381 1.073-2.278 1.455-.132.352-.264.705-.411 1.058-.191.485-.383.985-.574 1.484-2.292 5.967-5.349 9.642-8.597 10.377-.632.176-1.426.279-2.352.279Zm-68.651-75.177c-1.984 0-3.865 1.015-5.247 2.293-3.277 3.057-5.232 8.921-1.778 14.609 6.187 10.185 22.678 24.339 37.228 36.846 1.47 1.264 2.925 2.513 4.365 3.748 14.962 12.904 31.217 18.474 36.288 16.799.014 0 .014 0 .029-.015 3.057-.676 5.967-4.232 8.186-10.009.191-.514.397-1.014.574-1.499.161-.396.308-.793.455-1.175a.29.29 0 0 1 .162-.162c.882-.353 1.617-.823 2.204-1.382 2.22-2.116 3.41-4.247 4.542-6.319 1.146-2.073 2.234-4.042 4.247-5.6 1.573-1.22 1.749-2.352 1.632-3.072-.147-.896-.882-1.705-1.823-2.013-.735-.235-1.425-.133-1.91.308-.015.015-.044.03-.059.059-.118.103-.309.103-.412-.015-.103-.117-.103-.308.015-.411l.059-.059c.441-.411.602-.896.485-1.411-.177-.764-.97-1.499-1.911-1.778-.485-.147-1.411-.265-2.146.47a.297.297 0 0 1-.411.015.281.281 0 0 1-.03-.397c.559-.691.192-1.455-.323-1.94-.911-.838-2.528-1.117-3.748.029a.292.292 0 0 1-.396 0 .279.279 0 0 1-.03-.396c.235-.309-.235-.735-.338-.809-.823-.691-2.616-1.087-3.909.206a.473.473 0 0 1-.118.118.316.316 0 0 1-.412 0 .299.299 0 0 1-.014-.412c.029-.044.073-.073.103-.118.103-.132.147-.264.117-.382-.073-.294-.514-.588-1.073-.735-1.028-.264-2.675-.088-3.953 1.279-2.411 2.587-3.542 4.189-5.938 10.861-.015.03-.029.059-.059.089-.264.308-.529.632-.793.97a.334.334 0 0 1-.221.117.333.333 0 0 1-.235-.088 99.518 99.518 0 0 0-1.719-1.837c-11.068-11.699-47.384-37.875-58.26-45.62-1.132-.823-2.293-1.162-3.425-1.162Z" fill="#000"/><path d="M292.949 319.043a.305.305 0 0 1-.249-.132c-.045-.073-4.689-7.025-11.229-12.948a.285.285 0 0 1-.015-.412.285.285 0 0 1 .412-.014c6.599 5.982 11.272 12.992 11.317 13.066a.291.291 0 0 1-.089.411.505.505 0 0 1-.147.029Z" fill="#000"/><path d="M137.582 386.107c19.988 14.506 94.724-2.91 100.603-44.841-1.455-4.791-3.366-10.009-5.468-16.931 3.645-40.844 5.409-63.492-12.242-73.824-23.766-13.919-52.131-10.391-75.941 1.278-5.702 2.793-3.821 15.182-16.358 44.577-12.551 29.38-4.145 79.909 9.406 89.741Z" fill="#6556FF"/><path d="M137.523 284.373s-1.999 35.729 18.857 35.112c16.269-.485 69.165 3.16 85.244 26.293 16.064 23.119-1.764 44.841-36.244 50.926-34.48 6.085-83.216-28.718-79.1-49.103 4.115-20.386 4.1-27.499 11.243-63.228Z" fill="#6556FF"/><path d="M143.169 253.244c-4.218 1.999-29.247 53.307-36.155 66.138-8.671 16.093-2.836 7.745 9.113 19.106 11.948 11.361 10.876 10.288 14.991-9.406 4.115-19.694 7.495-62.904 12.051-75.838Zm73.237-4.923s8.436 1.661 48.545 41.373c7.099 7.025 11.758 10.582 11.758 10.582s3.718 26.058-3.043 43.209c-21.884-2.542-33.274-12.904-40.961-19.165-22.722-58.201-16.299-75.999-16.299-75.999Z" fill="#6556FF"/><path d="M158.602 246.057c13.139 5.277 36.507 6.07 48.295-1.528-15.403-5.144-33.29-3.792-48.295 1.528Z" fill="#000"/><path d="M187.716 399.026c-5.32 0-10.905-.411-16.607-1.249-13.875-2.028-26.793-6.423-33.716-11.434-3.586-2.602-6.922-8.054-9.641-15.771-2.631-7.466-4.512-16.475-5.424-26.058-1.616-1.249-3.747-3.263-6.422-5.805-4.204-3.998-7.657-5.541-9.95-6.57-1.749-.779-2.91-1.293-3.278-2.41-.529-1.558.544-3.983 4.057-10.494 1.778-3.292 4.762-9.171 8.245-15.991 9.362-18.386 22.193-43.577 26.837-49.162.72-1.249 1.543-2.072 2.587-2.587 11.772-5.761 24.191-9.259 35.905-10.126 13.139-.955 25.323 1.279 36.229 6.658.499.132 3.042 1.043 10.023 6.393 9.421 7.217 22.414 19.018 38.61 35.038 6.996 6.923 11.684 10.524 11.728 10.553a.329.329 0 0 1 .118.191c.015.059.941 6.629 1.014 15.212.073 7.922-.558 19.238-4.071 28.145a.306.306 0 0 1-.294.191c-7.804-.5-16.432-3.175-24.927-7.716-6.746-3.616-12.242-7.79-15.432-10.758a116.178 116.178 0 0 0 2.69 8.127c.808 2.234 1.514 4.159 2.469 7.76 3.483 10.582 2.219 23.839-3.277 34.598-2.323 4.556-5.306 8.495-8.863 11.713-3.851 3.484-8.289 6.041-13.198 7.599-7.172 2.631-15.888 3.953-25.412 3.953Zm-1.66-157.201c-13.36 0-27.528 3.424-41.402 10.214-.941.471-1.691 1.22-2.352 2.367-.015.014-.015.029-.029.044-4.586 5.482-17.417 30.673-26.779 49.059-3.468 6.82-6.467 12.713-8.245 16.005-3.366 6.232-4.468 8.686-4.027 10.024.294.867 1.293 1.308 2.969 2.057 2.322 1.044 5.835 2.617 10.112 6.673 2.719 2.587 4.864 4.63 6.481 5.849a.326.326 0 0 1 .118.206c1.881 19.768 7.833 36.464 14.829 41.535 6.849 4.967 19.665 9.303 33.451 11.331 15.814 2.322 30.644 1.382 41.74-2.66 11.846-3.777 18.357-12.434 21.723-19.033 5.423-10.626 6.672-23.721 3.233-34.156v-.015c-.955-3.586-1.646-5.497-2.454-7.716-.794-2.175-1.69-4.644-2.999-9.215-.044-.133.015-.265.133-.338a.288.288 0 0 1 .353.044c7.128 7.04 23.765 17.901 40.549 19.062 3.41-8.774 4.027-19.9 3.954-27.719-.074-7.907-.867-14.109-1-15.02-.705-.544-5.217-4.13-11.684-10.538-38.904-38.522-48.016-41.197-48.383-41.285-.015 0-.044-.015-.059-.015-9.127-4.512-19.4-6.76-30.232-6.76Z" fill="#6556FF"/><path d="M238.185 341.56h-.015a.302.302 0 0 1-.279-.294c-.132-1.234-10.611-32.26-14.638-44.136a.28.28 0 0 1 .191-.367.28.28 0 0 1 .367.191c2.455 7.246 14.741 43.46 14.668 44.342a.3.3 0 0 1-.294.264Zm-18.353-172.208c-2.087-.5-4.16 0-5.747 1.161-.705.529-1.72.015-1.72-.867v-.03c0-.323-.014-.646-.029-.97a4.51 4.51 0 0 0 1.617.118c1.91-.235 3.439-1.808 3.63-3.733a4.172 4.172 0 0 0-4.159-4.6h-.221c-1.881.103-3.733-.618-4.953-2.073-3.204-3.792-7.995-6.217-13.345-6.217-6.467 0-12.125 3.528-15.138 8.76.279-3.865 1.866-7.481 4.086-10.67-3.234 1.499-5.365 4.409-6.291 7.701-2.307-5.585-8.627-9.641-14.756-7.981 3.689 1.015 7.173 2.734 9.847 5.453 1.896 1.896 3.381 4.218 4.395 6.732 0 .073.015.146.015.235-2.778-3.263-6.923-5.35-11.552-5.35-5.159 0-9.73 2.587-12.449 6.525a43.414 43.414 0 0 1-10.993 10.994c-3.939 2.734-6.526 7.29-6.526 12.449 0 4.747 2.19 8.98 5.6 11.757 2.469 2.014 3.894 5.056 3.6 8.231l-.044.661c-.132 5.027 4.013 9.539 9.039 9.818.456.029.911.015 1.338-.015 1.411-.117 2.66.985 2.763 2.411.191 2.674 2.101 4.953 4.747 5.496a6.207 6.207 0 0 0 3.086-.132c1.676-.514 3.498-.456 5.071.323a6.068 6.068 0 0 0 2.675.632 6.037 6.037 0 0 0 3.542-1.146c1.866-1.352 4.188-1.837 6.452-1.484.926.147 1.911.102 2.925-.147 2.91-.735 4.982-3.307 5.217-6.306.118-1.557 1.088-2.939 2.528-3.542 2.587-1.087 4.997-3.733 4.997-6.54 0-.455-.044-.911-.132-1.352-.309-1.602.911-3.101 2.542-3.175h.133c5.497-.338 9.891-4.879 10.067-10.376a10.657 10.657 0 0 0-2.351-7.055c-1.984-2.469.896-5.864 3.601-4.218.088.059.176.103.264.162 1.176.779 2.278 1.749 3.777 2.028a6.979 6.979 0 0 0 8.187-6.099c.352-3.322-2.087-6.79-5.335-7.569Z" fill="#000"/><path d="M173.419 226.495a6.16 6.16 0 0 1-2.807-.661c-1.455-.721-3.175-.823-4.865-.309a6.51 6.51 0 0 1-3.234.147c-2.733-.573-4.776-2.94-4.967-5.776a2.354 2.354 0 0 0-.809-1.602 2.226 2.226 0 0 0-1.631-.544 8.736 8.736 0 0 1-1.382.015c-5.173-.294-9.435-4.924-9.318-10.127 0-.22.015-.455.044-.676.28-2.983-1.028-5.967-3.497-7.98a15.385 15.385 0 0 1-5.703-11.993c0-5.056 2.484-9.803 6.658-12.699a43.307 43.307 0 0 0 10.92-10.92 15.421 15.421 0 0 1 12.698-6.657c4.042 0 7.878 1.572 10.759 4.365-.985-2.073-2.293-3.954-3.822-5.482-2.425-2.455-5.687-4.263-9.714-5.365a.283.283 0 0 1-.221-.279c0-.132.088-.25.221-.279 2.954-.794 6.172-.338 9.038 1.308 2.469 1.411 4.527 3.615 5.747 6.128 1.117-3.277 3.307-5.79 6.217-7.143a.296.296 0 0 1 .353.074c.088.103.088.25.014.353-2.131 3.071-3.439 6.187-3.894 9.259a17.782 17.782 0 0 1 14.697-7.804c5.247 0 10.185 2.307 13.58 6.32 1.132 1.337 2.851 2.057 4.703 1.969h.235a4.42 4.42 0 0 1 3.307 1.47 4.423 4.423 0 0 1 1.132 3.454c-.206 2.057-1.837 3.733-3.88 3.982a4.504 4.504 0 0 1-1.338-.029c0 .206.015.397.015.603v.029c0 .294.162.559.426.691a.765.765 0 0 0 .823-.074 7.32 7.32 0 0 1 5.997-1.22c3.395.809 5.937 4.41 5.541 7.878-.236 2.028-1.25 3.821-2.896 5.041a7.305 7.305 0 0 1-5.643 1.323c-1.264-.235-2.234-.911-3.175-1.587l-.706-.485c-.088-.059-.161-.103-.249-.162-1.323-.808-2.528-.25-3.16.47-.706.809-1 2.146-.074 3.307a11.048 11.048 0 0 1 2.425 7.246c-.176 5.644-4.718 10.318-10.332 10.67h-.132c-.72.03-1.382.382-1.808.941a2.318 2.318 0 0 0-.456 1.896c.089.455.133.94.133 1.411 0 3.042-2.602 5.717-5.174 6.805-1.337.558-2.234 1.822-2.351 3.306-.235 3.175-2.425 5.806-5.438 6.57a7.896 7.896 0 0 1-3.043.162c-2.263-.353-4.482.161-6.231 1.44a6.333 6.333 0 0 1-3.733 1.22Zm-5.571-1.881c1.059 0 2.087.235 3.013.691a5.69 5.69 0 0 0 2.558.587c1.22 0 2.381-.382 3.38-1.087 1.881-1.367 4.248-1.911 6.673-1.543.926.147 1.866.088 2.807-.147 2.763-.691 4.776-3.131 4.997-6.041.132-1.69 1.161-3.145 2.704-3.792 2.396-1.014 4.821-3.483 4.821-6.261a7.5 7.5 0 0 0-.118-1.293 2.933 2.933 0 0 1 .573-2.366 3.067 3.067 0 0 1 2.249-1.162h.118c5.32-.323 9.626-4.761 9.788-10.097a10.47 10.47 0 0 0-2.293-6.863c-1.146-1.426-.793-3.072.088-4.071.838-.956 2.381-1.514 3.91-.588l.265.176c.235.162.485.324.705.485.941.662 1.822 1.279 2.954 1.485a6.666 6.666 0 0 0 5.188-1.206 6.688 6.688 0 0 0 2.66-4.629c.353-3.189-1.969-6.496-5.1-7.231a6.7 6.7 0 0 0-5.511 1.117c-.426.308-.97.353-1.426.117a1.351 1.351 0 0 1-.749-1.22v-.029c0-.309-.015-.632-.03-.955 0-.088.03-.191.103-.25.074-.059.177-.074.265-.059.485.132.999.162 1.499.103a3.903 3.903 0 0 0 3.38-3.469c.103-1.117-.235-2.175-.984-2.998a3.898 3.898 0 0 0-2.881-1.278h-.206c-2.043.102-3.939-.691-5.188-2.176a17.15 17.15 0 0 0-13.125-6.114 17.196 17.196 0 0 0-14.873 8.613c-.074.117-.206.176-.338.132a.29.29 0 0 1-.206-.308c.235-3.278 1.411-6.585 3.483-9.848-2.469 1.47-4.262 3.91-5.129 6.982-.029.117-.147.205-.265.22-.117.015-.235-.059-.294-.176-2.013-4.865-7.422-8.995-13.301-8.054 3.631 1.146 6.614 2.895 8.878 5.188 1.866 1.866 3.409 4.233 4.453 6.819.015.03.015.074.015.103v.221a.288.288 0 0 1-.191.279.303.303 0 0 1-.339-.088 14.817 14.817 0 0 0-11.316-5.247 14.868 14.868 0 0 0-12.214 6.408 43.78 43.78 0 0 1-11.067 11.067 14.867 14.867 0 0 0-6.408 12.213c0 4.497 1.999 8.701 5.497 11.537 2.616 2.132 4.012 5.306 3.704 8.481l-.044.646c-.118 4.88 3.88 9.245 8.759 9.524.441.03.867.015 1.308-.014a2.83 2.83 0 0 1 2.072.676 2.94 2.94 0 0 1 1.015 1.998c.176 2.572 2.028 4.718 4.512 5.233a5.858 5.858 0 0 0 2.939-.133 9.228 9.228 0 0 1 2.263-.308Z" fill="#000"/><path d="M116.801 403.744s-1.367-24.104-5.482-38.022 8.818-35.274 43.504-38.022c34.685-2.748 79.556 7.055 97.986 22.531 18.431 15.476-1.954 49.192-6.275 59.186-4.321 9.994-54.674 17.445-74.853 15.873-20.194-1.558-52.719-3.719-54.88-21.546Z" fill="#fff"/><path d="M246.535 409.431c.779-1.807 2.072-4.379 3.586-7.48-5.864 3.938-12.919 7.525-21.414 10.317-41.152 13.522-103.468 6.173-96.414-30.57 3.395-17.71.103-34.171-4.233-46.488-14.447 8.157-19.532 21.062-16.74 30.512 4.116 13.918 5.482 38.022 5.482 38.022 2.161 17.827 34.686 19.988 54.865 21.561 20.194 1.557 70.562-5.879 74.868-15.874Z" fill="#D0D4DD"/><path d="M177.87 425.804c-2.278 0-4.365-.073-6.217-.22l-1.22-.088c-10.259-.794-23.03-1.779-33.686-4.777-5.805-1.631-10.406-3.733-13.698-6.246-3.836-2.925-6.04-6.526-6.54-10.7v-.015c-.015-.235-1.411-24.235-5.482-37.948-1.793-6.07-.353-13.139 3.968-19.43 3.381-4.908 8.436-9.185 14.609-12.36 7.07-3.63 15.55-5.849 25.177-6.614 16.754-1.322 36.86.294 55.173 4.439 18.886 4.277 34.171 10.729 43.019 18.166 3.777 3.174 6.202 7.363 7.172 12.419.823 4.291.647 9.318-.544 14.962-2.16 10.214-7.143 20.399-10.449 27.145-.97 1.985-1.808 3.704-2.367 4.997-1.043 2.426-4.703 4.806-10.846 7.07-5.335 1.969-12.552 3.821-20.841 5.364-12.934 2.425-26.969 3.836-37.228 3.836Zm-60.773-22.09c.926 7.569 7.407 12.949 19.812 16.447 10.582 2.983 23.324 3.968 33.568 4.747l1.22.088c10.126.794 27.528-.661 43.298-3.601 17.99-3.351 29.395-7.76 31.261-12.096.559-1.308 1.411-3.027 2.381-5.026 3.292-6.717 8.26-16.858 10.406-27.014 2.557-12.066.382-21.076-6.438-26.807-8.774-7.378-23.971-13.786-42.769-18.034-18.268-4.13-38.315-5.747-54.997-4.424-24.368 1.926-35.126 12.552-39.359 18.71-4.218 6.129-5.629 13.036-3.895 18.93 4.072 13.698 5.482 37.492 5.512 38.08Z" fill="#000"/><defs><linearGradient id="a" x1="317.788" x2="336.91" y1="269.55" y2="275.596" gradientUnits="userSpaceOnUse"><stop stop-color="#fff"/><stop offset="1" stop-color="#08D7E6"/></linearGradient><linearGradient id="b" x1="391.226" x2="403.929" y1="81.959" y2="80.59" gradientUnits="userSpaceOnUse"><stop stop-color="#fff"/><stop offset="1" stop-color="#08D7E6"/></linearGradient><linearGradient id="c" x1="392.176" x2="370.331" y1="222.427" y2="232.977" gradientUnits="userSpaceOnUse"><stop stop-color="#9E54FF"/><stop offset="1" stop-color="#08D7E6"/></linearGradient></defs></svg>