<svg xmlns="http://www.w3.org/2000/svg" xmlns:xlink="http://www.w3.org/1999/xlink" width="500" zoomAndPan="magnify" viewBox="0 0 375 374.999991" height="500" preserveAspectRatio="xMidYMid meet" version="1.2"><defs><clipPath id="4338e8cc35"><path d="M 41 57 L 334 57 L 334 166.808594 L 41 166.808594 Z M 41 57 "/></clipPath></defs><g id="f5b54b96e3"><rect x="0" width="375" y="0" height="374.999991" style="fill:#ffffff;fill-opacity:1;stroke:none;"/><rect x="0" width="375" y="0" height="374.999991" style="fill:#ffffff;fill-opacity:1;stroke:none;"/><g clip-rule="nonzero" clip-path="url(#4338e8cc35)"><path style=" stroke:none;fill-rule:nonzero;fill:#000000;fill-opacity:1;" d="M 139.902344 96.636719 L 139.902344 62.625 L 128.394531 62.625 L 128.394531 58.304688 L 156.167969 58.304688 L 156.167969 62.625 L 144.605469 62.625 L 144.605469 96.636719 Z M 177.796875 96.960938 C 166.285156 96.960938 158.503906 88.539062 158.503906 77.472656 C 158.503906 66.40625 166.285156 57.929688 177.796875 57.929688 C 188.601562 57.929688 196.921875 65.757812 196.921875 77.472656 C 196.921875 89.132812 188.601562 96.960938 177.796875 96.960938 Z M 177.796875 92.480469 C 185.738281 92.480469 192.003906 86.273438 192.003906 77.472656 C 192.003906 68.5625 185.738281 62.410156 177.796875 62.410156 C 169.203125 62.410156 163.367188 69.15625 163.367188 77.472656 C 163.367188 85.785156 169.203125 92.480469 177.796875 92.480469 Z M 204.976562 96.636719 L 204.976562 58.304688 L 218.433594 58.304688 C 227.402344 58.304688 231.128906 63.382812 231.128906 70.183594 C 231.128906 78.28125 225.617188 82.007812 217.621094 82.007812 L 209.679688 82.007812 L 209.679688 96.636719 Z M 209.679688 77.6875 L 217.191406 77.6875 C 223.621094 77.6875 226.210938 74.449219 226.210938 70.074219 C 226.210938 65.21875 223.078125 62.625 217.945312 62.625 L 209.679688 62.625 Z M 48.125 220.085938 L 64.605469 220.085938 L 64.605469 224.242188 L 41.265625 224.242188 L 41.210938 221.109375 L 53.90625 208.152344 C 57.039062 204.914062 59.582031 201.890625 59.582031 198.21875 C 59.582031 194.117188 56.714844 191.09375 52.609375 191.09375 C 49.097656 191.09375 46.34375 192.820312 44.613281 196.167969 L 41.265625 193.847656 C 43.316406 189.796875 47.046875 186.828125 52.878906 186.828125 C 58.769531 186.828125 64.121094 190.878906 64.121094 197.734375 C 64.121094 201.945312 62.390625 205.5625 57.796875 210.207031 L 48.125 219.976562 Z M 84.246094 224.566406 C 76.195312 224.566406 70.304688 217.816406 70.304688 205.726562 C 70.304688 194.765625 75.382812 186.828125 84.246094 186.828125 C 92.296875 186.828125 98.183594 193.578125 98.183594 205.726562 C 98.183594 216.683594 93.105469 224.566406 84.246094 224.566406 Z M 84.246094 220.355469 C 90.1875 220.355469 93.59375 214.578125 93.59375 205.726562 C 93.59375 196.222656 89.757812 191.039062 84.246094 191.039062 C 78.355469 191.039062 74.898438 196.816406 74.898438 205.726562 C 74.898438 215.117188 78.789062 220.355469 84.246094 220.355469 Z M 111.695312 224.242188 L 111.695312 192.660156 L 104.292969 198.21875 L 102.023438 194.820312 L 112.453125 187.152344 L 116.234375 187.152344 L 116.234375 224.242188 Z M 136.550781 186.828125 C 143.847656 186.828125 149.574219 192.605469 149.574219 201.40625 C 149.519531 214.902344 139.847656 223.757812 130.175781 225.539062 L 128.878906 221.652344 C 135.523438 219.976562 142.117188 215.605469 144.332031 207.398438 L 144.222656 207.34375 C 141.902344 209.394531 138.605469 210.636719 134.984375 210.636719 C 128.609375 210.636719 123.691406 206.210938 123.691406 198.976562 C 123.691406 192.066406 129.203125 186.828125 136.550781 186.828125 Z M 135.957031 206.425781 C 139.738281 206.425781 143.25 204.375 145.144531 201.296875 L 145.144531 201.027344 C 145.144531 194.980469 141.523438 191.039062 136.605469 191.039062 C 131.582031 191.039062 128.285156 194.710938 128.285156 198.976562 C 128.285156 203.402344 131.363281 206.425781 135.957031 206.425781 Z M 196.011719 224.242188 L 192.933594 220.570312 C 190.339844 223.109375 186.9375 224.566406 182.289062 224.566406 C 175.480469 224.566406 170.078125 220.085938 170.078125 213.28125 C 170.078125 208.425781 173.105469 204.265625 177.371094 201.945312 L 172.726562 196.386719 C 173.265625 190.070312 177.804688 185.535156 184.125 185.535156 C 190.285156 185.535156 193.796875 189.3125 195.3125 192.769531 L 191.527344 194.226562 C 190.394531 191.742188 188.285156 189.582031 184.449219 189.527344 C 180.019531 189.527344 177.75 192.28125 177.371094 195.683594 L 192.988281 214.308594 C 194.390625 211.878906 195.039062 209.019531 195.039062 206.480469 L 199.308594 206.371094 C 199.308594 210.042969 198.335938 214.363281 195.90625 217.816406 L 201.308594 224.242188 Z M 174.671875 213.066406 C 174.671875 217.277344 177.914062 220.355469 182.722656 220.355469 C 185.964844 220.355469 188.503906 219.277344 190.394531 217.546875 L 190.394531 217.492188 L 180.074219 205.132812 C 176.667969 206.75 174.671875 209.882812 174.671875 213.066406 Z M 226.738281 220.085938 L 243.214844 220.085938 L 243.214844 224.242188 L 219.875 224.242188 L 219.820312 221.109375 L 232.519531 208.152344 C 235.652344 204.914062 238.191406 201.890625 238.191406 198.21875 C 238.191406 194.117188 235.328125 191.09375 231.222656 191.09375 C 227.707031 191.09375 224.953125 192.820312 223.222656 196.167969 L 219.875 193.847656 C 221.925781 189.796875 225.65625 186.828125 231.492188 186.828125 C 237.378906 186.828125 242.730469 190.878906 242.730469 197.734375 C 242.730469 201.945312 241 205.5625 236.40625 210.207031 L 226.738281 219.976562 Z M 262.855469 224.566406 C 254.804688 224.566406 248.914062 217.816406 248.914062 205.726562 C 248.914062 194.765625 253.996094 186.828125 262.855469 186.828125 C 270.90625 186.828125 276.796875 193.578125 276.796875 205.726562 C 276.796875 216.683594 271.714844 224.566406 262.855469 224.566406 Z M 262.855469 220.355469 C 268.800781 220.355469 272.203125 214.578125 272.203125 205.726562 C 272.203125 196.222656 268.367188 191.039062 262.855469 191.039062 C 256.964844 191.039062 253.507812 196.816406 253.507812 205.726562 C 253.507812 215.117188 257.398438 220.355469 262.855469 220.355469 Z M 288.683594 220.085938 L 305.164062 220.085938 L 305.164062 224.242188 L 281.820312 224.242188 L 281.765625 221.109375 L 294.464844 208.152344 C 297.597656 204.914062 300.136719 201.890625 300.136719 198.21875 C 300.136719 194.117188 297.273438 191.09375 293.167969 191.09375 C 289.65625 191.09375 286.898438 192.820312 285.171875 196.167969 L 281.820312 193.847656 C 283.875 189.796875 287.601562 186.828125 293.4375 186.828125 C 299.328125 186.828125 304.675781 190.878906 304.675781 197.734375 C 304.675781 201.945312 302.945312 205.5625 298.355469 210.207031 L 288.683594 219.976562 Z M 316.859375 220.085938 L 333.339844 220.085938 L 333.339844 224.242188 L 309.996094 224.242188 L 309.941406 221.109375 L 322.640625 208.152344 C 325.773438 204.914062 328.3125 201.890625 328.3125 198.21875 C 328.3125 194.117188 325.449219 191.09375 321.34375 191.09375 C 317.832031 191.09375 315.078125 192.820312 313.347656 196.167969 L 309.996094 193.847656 C 312.050781 189.796875 315.777344 186.828125 321.613281 186.828125 C 327.503906 186.828125 332.851562 190.878906 332.851562 197.734375 C 332.851562 201.945312 331.125 205.5625 326.53125 210.207031 L 316.859375 219.976562 Z M 316.859375 220.085938 "/></g><path style=" stroke:none;fill-rule:nonzero;fill:#000000;fill-opacity:1;" d="M 17.597656 160.441406 L 17.597656 122.109375 L 30.296875 122.109375 C 42.453125 122.109375 50.234375 129.992188 50.234375 141.328125 C 50.234375 152.613281 42.777344 160.441406 30.460938 160.441406 Z M 25.109375 153.691406 L 29.972656 153.691406 C 37.429688 153.691406 42.347656 148.347656 42.347656 141.328125 C 42.347656 134.148438 37.375 128.910156 30.460938 128.910156 L 25.109375 128.910156 Z M 57.066406 160.441406 L 57.066406 122.109375 L 81.597656 122.109375 L 81.597656 128.910156 L 64.523438 128.910156 L 64.523438 138.089844 L 78.195312 138.089844 L 78.195312 144.785156 L 64.523438 144.785156 L 64.523438 153.691406 L 82.734375 153.691406 L 82.734375 160.441406 Z M 113.457031 122.109375 L 121.613281 122.109375 L 107.40625 160.441406 L 100.703125 160.441406 L 86.441406 122.109375 L 94.707031 122.109375 L 104 149.644531 L 104.109375 149.644531 Z M 126.875 160.441406 L 126.875 122.109375 L 151.40625 122.109375 L 151.40625 128.910156 L 134.332031 128.910156 L 134.332031 138.089844 L 148.003906 138.089844 L 148.003906 144.785156 L 134.332031 144.785156 L 134.332031 153.691406 L 152.542969 153.691406 L 152.542969 160.441406 Z M 159.273438 160.441406 L 159.273438 122.109375 L 166.894531 122.109375 L 166.894531 153.691406 L 183.96875 153.691406 L 183.96875 160.441406 Z M 206.550781 160.871094 C 194.933594 160.871094 186.992188 152.613281 186.992188 141.273438 C 186.992188 129.882812 194.933594 121.625 206.550781 121.625 C 217.84375 121.625 226.058594 129.558594 226.058594 141.273438 C 226.058594 152.988281 217.84375 160.871094 206.550781 160.871094 Z M 206.605469 153.800781 C 213.199219 153.800781 218.167969 148.457031 218.167969 141.273438 C 218.167969 134.039062 213.199219 128.75 206.605469 128.75 C 199.691406 128.75 194.878906 134.3125 194.878906 141.273438 C 194.878906 148.238281 199.691406 153.800781 206.605469 153.800781 Z M 232.933594 160.441406 L 232.933594 122.109375 L 247.144531 122.109375 C 256.4375 122.109375 260.492188 127.507812 260.492188 134.851562 C 260.492188 143.273438 254.871094 147.320312 246.441406 147.320312 L 240.445312 147.320312 L 240.445312 160.441406 Z M 240.445312 140.574219 L 245.46875 140.574219 C 250.226562 140.574219 252.601562 138.25 252.601562 134.6875 C 252.601562 131.179688 250.226562 128.859375 245.792969 128.859375 L 240.445312 128.859375 Z M 266.652344 160.441406 L 266.652344 122.109375 L 291.183594 122.109375 L 291.183594 128.910156 L 274.109375 128.910156 L 274.109375 138.089844 L 287.777344 138.089844 L 287.777344 144.785156 L 274.109375 144.785156 L 274.109375 153.691406 L 292.316406 153.691406 L 292.316406 160.441406 Z M 328.550781 160.441406 L 319.582031 160.441406 L 310.992188 147.320312 L 306.558594 147.320312 L 306.558594 160.441406 L 299.050781 160.441406 L 299.050781 122.109375 L 313.585938 122.109375 C 322.824219 122.109375 326.929688 127.507812 326.929688 134.851562 C 326.929688 141.003906 323.957031 144.785156 319.042969 146.402344 Z M 306.558594 128.859375 L 306.558594 140.628906 L 311.855469 140.628906 C 316.554688 140.628906 319.09375 138.25 319.09375 134.6875 C 319.09375 131.179688 316.609375 128.859375 312.179688 128.859375 Z M 345.964844 160.871094 C 340.996094 160.871094 335.96875 158.984375 331.972656 154.824219 L 336.507812 149.210938 C 339.375 152.558594 343.046875 154.015625 346.074219 154.015625 C 349.746094 154.015625 351.585938 152.34375 351.585938 149.964844 C 351.585938 147.160156 349.53125 146.132812 344.882812 144.566406 C 339.101562 142.515625 333.320312 139.816406 333.320312 132.582031 C 333.320312 126.429688 338.726562 121.730469 345.640625 121.625 C 350.394531 121.570312 354.828125 123.351562 358.554688 126.484375 L 354.179688 132.207031 C 350.988281 129.558594 348.179688 128.425781 345.804688 128.425781 C 343.15625 128.425781 341.210938 129.828125 341.210938 132.257812 C 341.15625 134.632812 343.261719 135.660156 347.640625 137.386719 C 354.285156 139.980469 359.527344 141.707031 359.527344 149.101562 C 359.527344 157.472656 352.234375 160.871094 345.964844 160.871094 Z M 345.964844 160.871094 "/><path style=" stroke:none;fill-rule:nonzero;fill:#000000;fill-opacity:1;" d="M 144.179688 245.777344 L 133.5625 245.777344 L 133.5625 307.847656 L 144.179688 307.847656 Z M 144.179688 245.777344 "/><path style=" stroke:none;fill-rule:nonzero;fill:#000000;fill-opacity:1;" d="M 181.046875 307.847656 L 191.664062 307.847656 L 191.664062 265.800781 L 181.046875 265.800781 L 181.046875 288.007812 L 181.238281 288.007812 C 181.238281 297.292969 172.746094 298.199219 170.433594 298.199219 C 164.253906 298.199219 162.90625 292.554688 162.90625 289.097656 L 162.90625 265.800781 L 152.289062 265.800781 L 152.289062 289.464844 C 152.289062 295.289062 154.414062 300.019531 157.5 303.480469 C 160.394531 306.210938 165.027344 307.847656 170.238281 307.847656 C 173.910156 307.847656 178.730469 306.9375 181.046875 304.386719 Z M 181.046875 307.847656 "/><path style=" stroke:none;fill-rule:nonzero;fill:#000000;fill-opacity:1;" d="M 201.886719 307.847656 L 212.503906 307.847656 L 212.503906 275.8125 L 220.226562 275.8125 L 220.226562 265.800781 L 212.503906 265.800781 L 212.503906 250.875 L 201.886719 250.875 L 201.886719 265.800781 L 193.976562 265.800781 L 193.976562 275.8125 L 201.886719 275.8125 Z M 201.886719 307.847656 "/><path style=" stroke:none;fill-rule:nonzero;fill:#000000;fill-opacity:1;" d="M 244.933594 307.667969 C 250.917969 307.667969 256.515625 305.664062 260.757812 302.023438 L 262.304688 300.566406 L 254.96875 293.652344 L 253.425781 295.46875 C 251.109375 297.472656 248.214844 298.5625 244.933594 298.5625 C 237.597656 298.5625 232.191406 293.652344 232.191406 286.367188 C 232.191406 279.085938 237.402344 274.355469 244.933594 274.355469 C 248.214844 274.355469 251.109375 275.265625 253.425781 277.449219 L 254.96875 278.722656 L 261.914062 272.171875 L 260.371094 270.714844 C 255.929688 267.253906 250.722656 265.070312 244.929688 265.070312 C 231.804688 264.890625 222.152344 273.808594 222.152344 286.363281 C 222.15625 298.203125 232 307.667969 244.933594 307.667969 Z M 244.933594 307.667969 "/><path style=" stroke:none;fill-rule:nonzero;fill:#000000;fill-opacity:1;" d="M 277.9375 284.367188 C 277.9375 275.082031 285.273438 274.175781 287.589844 274.175781 C 293.765625 274.175781 293.765625 279.820312 293.765625 283.273438 L 293.765625 307.847656 L 304.378906 307.847656 L 304.378906 283.09375 C 304.570312 277.636719 303.222656 272.71875 299.75 269.441406 C 296.855469 266.714844 292.992188 265.074219 288.167969 265.074219 C 284.496094 265.074219 280.640625 265.984375 277.742188 268.535156 L 277.742188 245.785156 L 267.128906 245.785156 L 267.128906 307.851562 L 277.742188 307.851562 L 277.742188 284.371094 Z M 277.9375 284.367188 "/><path style=" stroke:none;fill-rule:nonzero;fill:#e52421;fill-opacity:1;" d="M 236.820312 286.367188 C 236.820312 290.375 240.292969 293.464844 244.347656 293.464844 C 248.59375 293.464844 251.871094 290.191406 251.871094 286.367188 C 251.871094 282.363281 248.398438 279.269531 244.347656 279.269531 C 240.292969 279.269531 236.820312 282.367188 236.820312 286.367188 Z M 236.820312 286.367188 "/><path style=" stroke:none;fill-rule:nonzero;fill:#000000;fill-opacity:1;" d="M 103.644531 307.667969 C 112.136719 307.667969 120.246094 304.574219 125.648438 298.929688 L 127.191406 297.472656 L 120.246094 290.554688 L 118.898438 292.375 C 115.035156 296.015625 109.246094 298.199219 103.648438 298.199219 C 91.683594 298.199219 83.1875 289.460938 83.1875 277.628906 C 83.1875 265.617188 91.679688 257.0625 103.453125 257.0625 C 109.050781 257.0625 114.261719 259.246094 118.699219 262.886719 L 120.246094 264.34375 L 127.191406 257.792969 L 125.648438 256.335938 C 119.859375 250.511719 111.941406 247.597656 103.644531 247.597656 C 86.273438 247.777344 73.34375 260.523438 73.34375 277.628906 C 73.34375 294.738281 86.273438 307.667969 103.644531 307.667969 Z M 103.644531 307.667969 "/><g style="fill:#000000;fill-opacity:1;"><g transform="translate(148.592037, 218.580753)"><path style="stroke:none" d="M 1.359375 -1.03125 C 1.359375 -2.28125 1.492188 -3.285156 1.765625 -4.046875 C 2.046875 -4.816406 2.515625 -5.53125 3.171875 -6.1875 C 3.835938 -6.851562 4.890625 -7.710938 6.328125 -8.765625 L 8.828125 -10.578125 C 9.742188 -11.242188 10.488281 -11.859375 11.0625 -12.421875 C 11.644531 -12.992188 12.101562 -13.613281 12.4375 -14.28125 C 12.78125 -14.945312 12.953125 -15.695312 12.953125 -16.53125 C 12.953125 -17.863281 12.59375 -18.867188 11.875 -19.546875 C 11.164062 -20.234375 10.050781 -20.578125 8.53125 -20.578125 C 7.332031 -20.578125 6.269531 -20.296875 5.34375 -19.734375 C 4.414062 -19.179688 3.671875 -18.394531 3.109375 -17.375 L 2.75 -17.3125 L 1.15625 -18.984375 C 1.925781 -20.222656 2.929688 -21.195312 4.171875 -21.90625 C 5.421875 -22.613281 6.875 -22.96875 8.53125 -22.96875 C 10.144531 -22.96875 11.484375 -22.691406 12.546875 -22.140625 C 13.609375 -21.597656 14.390625 -20.84375 14.890625 -19.875 C 15.398438 -18.914062 15.65625 -17.800781 15.65625 -16.53125 C 15.65625 -15.507812 15.441406 -14.5625 15.015625 -13.6875 C 14.597656 -12.8125 14 -11.984375 13.21875 -11.203125 C 12.445312 -10.429688 11.476562 -9.617188 10.3125 -8.765625 L 7.796875 -6.921875 C 6.847656 -6.234375 6.117188 -5.644531 5.609375 -5.15625 C 5.109375 -4.664062 4.742188 -4.191406 4.515625 -3.734375 C 4.285156 -3.273438 4.171875 -2.765625 4.171875 -2.203125 L 15.65625 -2.203125 L 15.65625 0 L 1.359375 0 Z M 1.359375 -1.03125 "/></g></g><g style="fill:#000000;fill-opacity:1;"><g transform="translate(165.998797, 218.580753)"><path style="stroke:none" d="M 11.140625 0.328125 C 9.472656 0.328125 7.976562 -0.0703125 6.65625 -0.875 C 5.332031 -1.675781 4.28125 -2.945312 3.5 -4.6875 C 2.71875 -6.425781 2.328125 -8.640625 2.328125 -11.328125 C 2.328125 -14.003906 2.71875 -16.210938 3.5 -17.953125 C 4.28125 -19.691406 5.332031 -20.960938 6.65625 -21.765625 C 7.976562 -22.566406 9.472656 -22.96875 11.140625 -22.96875 C 12.796875 -22.96875 14.285156 -22.566406 15.609375 -21.765625 C 16.929688 -20.960938 17.984375 -19.691406 18.765625 -17.953125 C 19.546875 -16.210938 19.9375 -14.003906 19.9375 -11.328125 C 19.9375 -8.640625 19.546875 -6.425781 18.765625 -4.6875 C 17.984375 -2.945312 16.929688 -1.675781 15.609375 -0.875 C 14.285156 -0.0703125 12.796875 0.328125 11.140625 0.328125 Z M 11.140625 -2.140625 C 13.109375 -2.140625 14.597656 -2.847656 15.609375 -4.265625 C 16.628906 -5.679688 17.140625 -8.035156 17.140625 -11.328125 C 17.140625 -14.609375 16.628906 -16.957031 15.609375 -18.375 C 14.597656 -19.789062 13.109375 -20.5 11.140625 -20.5 C 9.835938 -20.5 8.738281 -20.195312 7.84375 -19.59375 C 6.957031 -19 6.28125 -18.023438 5.8125 -16.671875 C 5.34375 -15.328125 5.109375 -13.546875 5.109375 -11.328125 C 5.109375 -9.097656 5.34375 -7.304688 5.8125 -5.953125 C 6.28125 -4.609375 6.957031 -3.632812 7.84375 -3.03125 C 8.738281 -2.4375 9.835938 -2.140625 11.140625 -2.140625 Z M 11.140625 -2.140625 "/></g></g><g style="fill:#000000;fill-opacity:1;"><g transform="translate(187.943025, 218.580753)"><path style="stroke:none" d="M 1.359375 -1.03125 C 1.359375 -2.28125 1.492188 -3.285156 1.765625 -4.046875 C 2.046875 -4.816406 2.515625 -5.53125 3.171875 -6.1875 C 3.835938 -6.851562 4.890625 -7.710938 6.328125 -8.765625 L 8.828125 -10.578125 C 9.742188 -11.242188 10.488281 -11.859375 11.0625 -12.421875 C 11.644531 -12.992188 12.101562 -13.613281 12.4375 -14.28125 C 12.78125 -14.945312 12.953125 -15.695312 12.953125 -16.53125 C 12.953125 -17.863281 12.59375 -18.867188 11.875 -19.546875 C 11.164062 -20.234375 10.050781 -20.578125 8.53125 -20.578125 C 7.332031 -20.578125 6.269531 -20.296875 5.34375 -19.734375 C 4.414062 -19.179688 3.671875 -18.394531 3.109375 -17.375 L 2.75 -17.3125 L 1.15625 -18.984375 C 1.925781 -20.222656 2.929688 -21.195312 4.171875 -21.90625 C 5.421875 -22.613281 6.875 -22.96875 8.53125 -22.96875 C 10.144531 -22.96875 11.484375 -22.691406 12.546875 -22.140625 C 13.609375 -21.597656 14.390625 -20.84375 14.890625 -19.875 C 15.398438 -18.914062 15.65625 -17.800781 15.65625 -16.53125 C 15.65625 -15.507812 15.441406 -14.5625 15.015625 -13.6875 C 14.597656 -12.8125 14 -11.984375 13.21875 -11.203125 C 12.445312 -10.429688 11.476562 -9.617188 10.3125 -8.765625 L 7.796875 -6.921875 C 6.847656 -6.234375 6.117188 -5.644531 5.609375 -5.15625 C 5.109375 -4.664062 4.742188 -4.191406 4.515625 -3.734375 C 4.285156 -3.273438 4.171875 -2.765625 4.171875 -2.203125 L 15.65625 -2.203125 L 15.65625 0 L 1.359375 0 Z M 1.359375 -1.03125 "/></g></g><g style="fill:#000000;fill-opacity:1;"><g transform="translate(205.349784, 218.580753)"><path style="stroke:none" d="M 11.140625 0.328125 C 9.472656 0.328125 7.976562 -0.0703125 6.65625 -0.875 C 5.332031 -1.675781 4.28125 -2.945312 3.5 -4.6875 C 2.71875 -6.425781 2.328125 -8.640625 2.328125 -11.328125 C 2.328125 -14.003906 2.71875 -16.210938 3.5 -17.953125 C 4.28125 -19.691406 5.332031 -20.960938 6.65625 -21.765625 C 7.976562 -22.566406 9.472656 -22.96875 11.140625 -22.96875 C 12.796875 -22.96875 14.285156 -22.566406 15.609375 -21.765625 C 16.929688 -20.960938 17.984375 -19.691406 18.765625 -17.953125 C 19.546875 -16.210938 19.9375 -14.003906 19.9375 -11.328125 C 19.9375 -8.640625 19.546875 -6.425781 18.765625 -4.6875 C 17.984375 -2.945312 16.929688 -1.675781 15.609375 -0.875 C 14.285156 -0.0703125 12.796875 0.328125 11.140625 0.328125 Z M 11.140625 -2.140625 C 13.109375 -2.140625 14.597656 -2.847656 15.609375 -4.265625 C 16.628906 -5.679688 17.140625 -8.035156 17.140625 -11.328125 C 17.140625 -14.609375 16.628906 -16.957031 15.609375 -18.375 C 14.597656 -19.789062 13.109375 -20.5 11.140625 -20.5 C 9.835938 -20.5 8.738281 -20.195312 7.84375 -19.59375 C 6.957031 -19 6.28125 -18.023438 5.8125 -16.671875 C 5.34375 -15.328125 5.109375 -13.546875 5.109375 -11.328125 C 5.109375 -9.097656 5.34375 -7.304688 5.8125 -5.953125 C 6.28125 -4.609375 6.957031 -3.632812 7.84375 -3.03125 C 8.738281 -2.4375 9.835938 -2.140625 11.140625 -2.140625 Z M 11.140625 -2.140625 "/></g></g></g></svg>